<mxfile host="app.diagrams.net" agent="Mozilla/5.0 (Macintosh; Intel Mac OS X 10_15_7) AppleWebKit/537.36 (KHTML, like Gecko) Chrome/135.0.0.0 Safari/537.36" version="26.2.12">
  <diagram name="Page-1" id="Yk5gqsM_una3mSJjagre">
    <mxGraphModel dx="3205" dy="1022" grid="1" gridSize="10" guides="1" tooltips="1" connect="1" arrows="1" fold="1" page="1" pageScale="1" pageWidth="850" pageHeight="1100" math="0" shadow="0">
      <root>
        <mxCell id="0" />
        <mxCell id="1" parent="0" />
        <mxCell id="KbI-gIg1m7kFd8Ul9KuT-103" value="" style="rounded=0;whiteSpace=wrap;html=1;fontFamily=Avenir;" vertex="1" parent="1">
          <mxGeometry x="-220" y="2319" width="200" height="161" as="geometry" />
        </mxCell>
        <mxCell id="KbI-gIg1m7kFd8Ul9KuT-101" value="" style="rounded=0;whiteSpace=wrap;html=1;fontFamily=Avenir;" vertex="1" parent="1">
          <mxGeometry x="295" y="2160" width="210" height="320" as="geometry" />
        </mxCell>
        <mxCell id="NY-ZdKfG21k544bjwJPL-45" value="" style="rounded=0;whiteSpace=wrap;html=1;fillColor=#C3ABD0;" parent="1" vertex="1">
          <mxGeometry x="-238" y="742" width="60" height="30" as="geometry" />
        </mxCell>
        <mxCell id="NY-ZdKfG21k544bjwJPL-43" value="" style="rounded=0;whiteSpace=wrap;html=1;fillColor=#A9C4EB;" parent="1" vertex="1">
          <mxGeometry x="-384" y="742" width="60" height="30" as="geometry" />
        </mxCell>
        <mxCell id="NY-ZdKfG21k544bjwJPL-42" value="" style="rounded=0;whiteSpace=wrap;html=1;fillColor=#FFE599;" parent="1" vertex="1">
          <mxGeometry x="-321" y="742" width="79" height="30" as="geometry" />
        </mxCell>
        <mxCell id="toREJBgp3T2Z5otdVvuI-4" value="" style="rounded=0;whiteSpace=wrap;html=1;fillColor=#E6E6E6;" parent="1" vertex="1">
          <mxGeometry x="1280" y="200" width="240" height="200" as="geometry" />
        </mxCell>
        <mxCell id="Hwh45yyVBSEUl5WAiRsI-37" value="" style="rounded=0;whiteSpace=wrap;html=1;fillColor=#E6E6E6;" parent="1" vertex="1">
          <mxGeometry x="140" y="420" width="240" height="210" as="geometry" />
        </mxCell>
        <mxCell id="Hwh45yyVBSEUl5WAiRsI-35" value="" style="rounded=0;whiteSpace=wrap;html=1;fillColor=#E6E6E6;" parent="1" vertex="1">
          <mxGeometry x="140" y="110" width="120" height="300" as="geometry" />
        </mxCell>
        <mxCell id="Hwh45yyVBSEUl5WAiRsI-8" style="edgeStyle=orthogonalEdgeStyle;rounded=0;orthogonalLoop=1;jettySize=auto;html=1;entryX=0.5;entryY=0;entryDx=0;entryDy=0;" parent="1" source="Hwh45yyVBSEUl5WAiRsI-1" target="Hwh45yyVBSEUl5WAiRsI-7" edge="1">
          <mxGeometry relative="1" as="geometry" />
        </mxCell>
        <mxCell id="Hwh45yyVBSEUl5WAiRsI-1" value="&lt;font face=&quot;Avenir&quot;&gt;BNF&lt;/font&gt;" style="rounded=0;whiteSpace=wrap;html=1;fillColor=#C3ABD0;" parent="1" vertex="1">
          <mxGeometry x="160" y="120" width="80" height="40" as="geometry" />
        </mxCell>
        <mxCell id="Hwh45yyVBSEUl5WAiRsI-4" style="edgeStyle=orthogonalEdgeStyle;rounded=0;orthogonalLoop=1;jettySize=auto;html=1;entryX=0.5;entryY=0;entryDx=0;entryDy=0;" parent="1" source="Hwh45yyVBSEUl5WAiRsI-3" target="Hwh45yyVBSEUl5WAiRsI-1" edge="1">
          <mxGeometry relative="1" as="geometry" />
        </mxCell>
        <mxCell id="Hwh45yyVBSEUl5WAiRsI-3" value="&lt;font face=&quot;Avenir&quot;&gt;DESIGNER&lt;/font&gt;" style="text;html=1;align=center;verticalAlign=middle;resizable=0;points=[];autosize=1;strokeColor=none;fillColor=none;" parent="1" vertex="1">
          <mxGeometry x="160" y="60" width="80" height="30" as="geometry" />
        </mxCell>
        <mxCell id="Hwh45yyVBSEUl5WAiRsI-6" style="edgeStyle=orthogonalEdgeStyle;rounded=0;orthogonalLoop=1;jettySize=auto;html=1;entryX=1;entryY=0.5;entryDx=0;entryDy=0;exitX=0.5;exitY=1;exitDx=0;exitDy=0;" parent="1" source="Hwh45yyVBSEUl5WAiRsI-5" target="Hwh45yyVBSEUl5WAiRsI-7" edge="1">
          <mxGeometry relative="1" as="geometry">
            <mxPoint x="320" y="200" as="targetPoint" />
          </mxGeometry>
        </mxCell>
        <mxCell id="Hwh45yyVBSEUl5WAiRsI-5" value="&lt;font face=&quot;Avenir&quot;&gt;ANTLR&lt;/font&gt;" style="rounded=0;whiteSpace=wrap;html=1;fillColor=#A7D1A7;" parent="1" vertex="1">
          <mxGeometry x="280" y="120" width="80" height="40" as="geometry" />
        </mxCell>
        <mxCell id="Hwh45yyVBSEUl5WAiRsI-10" style="edgeStyle=orthogonalEdgeStyle;rounded=0;orthogonalLoop=1;jettySize=auto;html=1;" parent="1" source="Hwh45yyVBSEUl5WAiRsI-7" target="Hwh45yyVBSEUl5WAiRsI-9" edge="1">
          <mxGeometry relative="1" as="geometry" />
        </mxCell>
        <mxCell id="Hwh45yyVBSEUl5WAiRsI-7" value="&lt;font face=&quot;Avenir&quot;&gt;BNF-Parser&lt;/font&gt;" style="rounded=0;whiteSpace=wrap;html=1;fillColor=#91A8C9;" parent="1" vertex="1">
          <mxGeometry x="160" y="200" width="80" height="40" as="geometry" />
        </mxCell>
        <mxCell id="Hwh45yyVBSEUl5WAiRsI-11" style="edgeStyle=orthogonalEdgeStyle;rounded=0;orthogonalLoop=1;jettySize=auto;html=1;" parent="1" source="Hwh45yyVBSEUl5WAiRsI-9" target="Hwh45yyVBSEUl5WAiRsI-12" edge="1">
          <mxGeometry relative="1" as="geometry">
            <mxPoint x="200" y="360" as="targetPoint" />
          </mxGeometry>
        </mxCell>
        <mxCell id="Hwh45yyVBSEUl5WAiRsI-9" value="&lt;font face=&quot;Avenir&quot;&gt;Grammar&lt;/font&gt;" style="rounded=0;whiteSpace=wrap;html=1;fillColor=#91A8C9;" parent="1" vertex="1">
          <mxGeometry x="160" y="280" width="80" height="40" as="geometry" />
        </mxCell>
        <mxCell id="Hwh45yyVBSEUl5WAiRsI-12" value="&lt;font face=&quot;Avenir&quot;&gt;Grammar-Parser&lt;/font&gt;" style="rounded=0;whiteSpace=wrap;html=1;fillColor=#91A8C9;" parent="1" vertex="1">
          <mxGeometry x="160" y="360" width="80" height="40" as="geometry" />
        </mxCell>
        <mxCell id="Hwh45yyVBSEUl5WAiRsI-15" style="edgeStyle=orthogonalEdgeStyle;rounded=0;orthogonalLoop=1;jettySize=auto;html=1;entryX=1;entryY=0.5;entryDx=0;entryDy=0;exitX=0.5;exitY=1;exitDx=0;exitDy=0;" parent="1" source="Hwh45yyVBSEUl5WAiRsI-14" target="Hwh45yyVBSEUl5WAiRsI-12" edge="1">
          <mxGeometry relative="1" as="geometry" />
        </mxCell>
        <mxCell id="Hwh45yyVBSEUl5WAiRsI-14" value="&lt;font face=&quot;Avenir&quot;&gt;Tree-Sitter&lt;/font&gt;" style="rounded=0;whiteSpace=wrap;html=1;fillColor=#A7D1A7;" parent="1" vertex="1">
          <mxGeometry x="280" y="280" width="80" height="40" as="geometry" />
        </mxCell>
        <mxCell id="Hwh45yyVBSEUl5WAiRsI-18" value="&lt;font face=&quot;Avenir&quot;&gt;Computable Contract IDE&lt;/font&gt;" style="rounded=0;whiteSpace=wrap;html=1;fillColor=#91A8C9;" parent="1" vertex="1">
          <mxGeometry x="160" y="440" width="200" height="40" as="geometry" />
        </mxCell>
        <mxCell id="Hwh45yyVBSEUl5WAiRsI-23" style="edgeStyle=orthogonalEdgeStyle;rounded=0;orthogonalLoop=1;jettySize=auto;html=1;exitX=0.25;exitY=1;exitDx=0;exitDy=0;entryX=0.102;entryY=-0.06;entryDx=0;entryDy=0;entryPerimeter=0;" parent="1" source="Hwh45yyVBSEUl5WAiRsI-12" target="Hwh45yyVBSEUl5WAiRsI-18" edge="1">
          <mxGeometry relative="1" as="geometry" />
        </mxCell>
        <mxCell id="Hwh45yyVBSEUl5WAiRsI-26" style="edgeStyle=orthogonalEdgeStyle;rounded=0;orthogonalLoop=1;jettySize=auto;html=1;exitX=0.25;exitY=0;exitDx=0;exitDy=0;entryX=0.628;entryY=0.982;entryDx=0;entryDy=0;entryPerimeter=0;" parent="1" source="Hwh45yyVBSEUl5WAiRsI-18" target="Hwh45yyVBSEUl5WAiRsI-12" edge="1">
          <mxGeometry relative="1" as="geometry" />
        </mxCell>
        <mxCell id="Hwh45yyVBSEUl5WAiRsI-28" value="&lt;font face=&quot;Avenir&quot;&gt;Contract&lt;/font&gt;" style="rounded=0;whiteSpace=wrap;html=1;fillColor=#C3ABD0;" parent="1" vertex="1">
          <mxGeometry x="160" y="520" width="80" height="40" as="geometry" />
        </mxCell>
        <mxCell id="Hwh45yyVBSEUl5WAiRsI-31" style="edgeStyle=orthogonalEdgeStyle;rounded=0;orthogonalLoop=1;jettySize=auto;html=1;entryX=0.202;entryY=1.041;entryDx=0;entryDy=0;entryPerimeter=0;" parent="1" source="Hwh45yyVBSEUl5WAiRsI-28" target="Hwh45yyVBSEUl5WAiRsI-18" edge="1">
          <mxGeometry relative="1" as="geometry" />
        </mxCell>
        <mxCell id="Hwh45yyVBSEUl5WAiRsI-33" style="edgeStyle=orthogonalEdgeStyle;rounded=0;orthogonalLoop=1;jettySize=auto;html=1;entryX=0.5;entryY=1;entryDx=0;entryDy=0;" parent="1" source="Hwh45yyVBSEUl5WAiRsI-32" target="Hwh45yyVBSEUl5WAiRsI-28" edge="1">
          <mxGeometry relative="1" as="geometry" />
        </mxCell>
        <mxCell id="Hwh45yyVBSEUl5WAiRsI-32" value="&lt;font face=&quot;Avenir&quot;&gt;LAWYER&lt;/font&gt;" style="text;html=1;align=center;verticalAlign=middle;resizable=0;points=[];autosize=1;strokeColor=none;fillColor=none;" parent="1" vertex="1">
          <mxGeometry x="165" y="590" width="70" height="30" as="geometry" />
        </mxCell>
        <mxCell id="Hwh45yyVBSEUl5WAiRsI-38" value="&lt;font face=&quot;Avenir&quot;&gt;Designer&amp;nbsp;&lt;/font&gt;&lt;div&gt;&lt;font face=&quot;Avenir&quot;&gt;Facing&lt;/font&gt;&lt;/div&gt;" style="text;html=1;align=center;verticalAlign=middle;resizable=0;points=[];autosize=1;strokeColor=none;fillColor=none;" parent="1" vertex="1">
          <mxGeometry x="60" y="230" width="80" height="40" as="geometry" />
        </mxCell>
        <mxCell id="Hwh45yyVBSEUl5WAiRsI-39" value="&lt;font face=&quot;Avenir&quot;&gt;Lawyer Facing&lt;/font&gt;" style="text;html=1;align=center;verticalAlign=middle;resizable=0;points=[];autosize=1;strokeColor=none;fillColor=none;" parent="1" vertex="1">
          <mxGeometry x="255" y="530" width="100" height="30" as="geometry" />
        </mxCell>
        <mxCell id="Hwh45yyVBSEUl5WAiRsI-41" value="&lt;font face=&quot;Avenir&quot;&gt;User/Dev Interactions&lt;/font&gt;" style="rounded=0;whiteSpace=wrap;html=1;fillColor=#C3ABD0;" parent="1" vertex="1">
          <mxGeometry x="400" y="120" width="80" height="40" as="geometry" />
        </mxCell>
        <mxCell id="Hwh45yyVBSEUl5WAiRsI-42" value="&lt;font face=&quot;Avenir&quot;&gt;Tools&lt;/font&gt;" style="rounded=0;whiteSpace=wrap;html=1;fillColor=#A7D1A7;" parent="1" vertex="1">
          <mxGeometry x="400" y="160" width="80" height="40" as="geometry" />
        </mxCell>
        <mxCell id="Hwh45yyVBSEUl5WAiRsI-43" value="&lt;font face=&quot;Avenir&quot;&gt;Parser Pipeline&lt;/font&gt;" style="rounded=0;whiteSpace=wrap;html=1;fillColor=#91A8C9;" parent="1" vertex="1">
          <mxGeometry x="400" y="200" width="80" height="40" as="geometry" />
        </mxCell>
        <mxCell id="toREJBgp3T2Z5otdVvuI-7" style="edgeStyle=orthogonalEdgeStyle;rounded=0;orthogonalLoop=1;jettySize=auto;html=1;entryX=0.5;entryY=1;entryDx=0;entryDy=0;" parent="1" source="toREJBgp3T2Z5otdVvuI-1" target="toREJBgp3T2Z5otdVvuI-4" edge="1">
          <mxGeometry relative="1" as="geometry" />
        </mxCell>
        <mxCell id="toREJBgp3T2Z5otdVvuI-1" value="&lt;font face=&quot;Avenir&quot;&gt;Legal Language&lt;/font&gt;" style="rounded=0;whiteSpace=wrap;html=1;fillColor=#C3ABD0;" parent="1" vertex="1">
          <mxGeometry x="1339" y="440" width="122" height="40" as="geometry" />
        </mxCell>
        <mxCell id="toREJBgp3T2Z5otdVvuI-5" style="edgeStyle=orthogonalEdgeStyle;rounded=0;orthogonalLoop=1;jettySize=auto;html=1;entryX=0;entryY=0.5;entryDx=0;entryDy=0;" parent="1" source="toREJBgp3T2Z5otdVvuI-2" target="toREJBgp3T2Z5otdVvuI-4" edge="1">
          <mxGeometry relative="1" as="geometry" />
        </mxCell>
        <mxCell id="toREJBgp3T2Z5otdVvuI-2" value="&lt;font face=&quot;Avenir&quot;&gt;Analysis Tools&lt;/font&gt;" style="rounded=0;whiteSpace=wrap;html=1;fillColor=#A7D1A7;" parent="1" vertex="1">
          <mxGeometry x="1120" y="280" width="120" height="40" as="geometry" />
        </mxCell>
        <mxCell id="toREJBgp3T2Z5otdVvuI-6" style="edgeStyle=orthogonalEdgeStyle;rounded=0;orthogonalLoop=1;jettySize=auto;html=1;entryX=1;entryY=0.5;entryDx=0;entryDy=0;" parent="1" source="toREJBgp3T2Z5otdVvuI-3" target="toREJBgp3T2Z5otdVvuI-4" edge="1">
          <mxGeometry relative="1" as="geometry" />
        </mxCell>
        <mxCell id="toREJBgp3T2Z5otdVvuI-3" value="&lt;font face=&quot;Avenir&quot;&gt;Visualisation Tools&lt;/font&gt;" style="rounded=0;whiteSpace=wrap;html=1;fillColor=#91A8C9;" parent="1" vertex="1">
          <mxGeometry x="1560" y="280" width="120" height="40" as="geometry" />
        </mxCell>
        <mxCell id="toREJBgp3T2Z5otdVvuI-8" value="&lt;font face=&quot;Avenir&quot;&gt;Computable Contracts IDE&lt;/font&gt;" style="text;html=1;align=center;verticalAlign=middle;whiteSpace=wrap;rounded=0;fontStyle=1;fillColor=#F2F2F2;" parent="1" vertex="1">
          <mxGeometry x="1301.63" y="220" width="192.75" height="50" as="geometry" />
        </mxCell>
        <mxCell id="toREJBgp3T2Z5otdVvuI-9" value="&lt;font face=&quot;Avenir&quot;&gt;Contract Editor&lt;/font&gt;" style="rounded=0;whiteSpace=wrap;html=1;fontStyle=0" parent="1" vertex="1">
          <mxGeometry x="1310" y="280" width="80" height="100" as="geometry" />
        </mxCell>
        <mxCell id="toREJBgp3T2Z5otdVvuI-10" value="&lt;font face=&quot;Avenir&quot;&gt;Contract Parser&lt;/font&gt;" style="rounded=0;whiteSpace=wrap;html=1;fontStyle=0" parent="1" vertex="1">
          <mxGeometry x="1410" y="280" width="80" height="100" as="geometry" />
        </mxCell>
        <mxCell id="ZlwTb9oOvierl9NkocId-6" style="edgeStyle=orthogonalEdgeStyle;rounded=0;orthogonalLoop=1;jettySize=auto;html=1;entryX=1;entryY=0.5;entryDx=0;entryDy=0;" parent="1" source="ZlwTb9oOvierl9NkocId-1" target="toREJBgp3T2Z5otdVvuI-3" edge="1">
          <mxGeometry relative="1" as="geometry" />
        </mxCell>
        <mxCell id="ZlwTb9oOvierl9NkocId-1" value="&lt;font face=&quot;Avenir&quot;&gt;Tree&lt;/font&gt;" style="rounded=0;whiteSpace=wrap;html=1;fillColor=#91A8C9;" parent="1" vertex="1">
          <mxGeometry x="1720" y="200" width="80" height="40" as="geometry" />
        </mxCell>
        <mxCell id="ZlwTb9oOvierl9NkocId-5" style="edgeStyle=orthogonalEdgeStyle;rounded=0;orthogonalLoop=1;jettySize=auto;html=1;exitX=0;exitY=0.5;exitDx=0;exitDy=0;" parent="1" source="ZlwTb9oOvierl9NkocId-2" edge="1">
          <mxGeometry relative="1" as="geometry">
            <mxPoint x="1680" y="300.16666666666674" as="targetPoint" />
          </mxGeometry>
        </mxCell>
        <mxCell id="ZlwTb9oOvierl9NkocId-2" value="&lt;font face=&quot;Avenir&quot;&gt;File&lt;/font&gt;" style="rounded=0;whiteSpace=wrap;html=1;fillColor=#91A8C9;" parent="1" vertex="1">
          <mxGeometry x="1720" y="280" width="80" height="40" as="geometry" />
        </mxCell>
        <mxCell id="ZlwTb9oOvierl9NkocId-4" style="edgeStyle=orthogonalEdgeStyle;rounded=0;orthogonalLoop=1;jettySize=auto;html=1;exitX=0;exitY=0.5;exitDx=0;exitDy=0;entryX=1;entryY=0.5;entryDx=0;entryDy=0;" parent="1" source="ZlwTb9oOvierl9NkocId-3" target="toREJBgp3T2Z5otdVvuI-3" edge="1">
          <mxGeometry relative="1" as="geometry" />
        </mxCell>
        <mxCell id="ZlwTb9oOvierl9NkocId-3" value="&lt;font face=&quot;Avenir&quot;&gt;PDF&lt;/font&gt;" style="rounded=0;whiteSpace=wrap;html=1;fillColor=#91A8C9;" parent="1" vertex="1">
          <mxGeometry x="1720" y="360" width="80" height="40" as="geometry" />
        </mxCell>
        <mxCell id="ZlwTb9oOvierl9NkocId-8" style="edgeStyle=orthogonalEdgeStyle;rounded=0;orthogonalLoop=1;jettySize=auto;html=1;entryX=0;entryY=0.5;entryDx=0;entryDy=0;" parent="1" source="ZlwTb9oOvierl9NkocId-7" target="toREJBgp3T2Z5otdVvuI-2" edge="1">
          <mxGeometry relative="1" as="geometry" />
        </mxCell>
        <mxCell id="ZlwTb9oOvierl9NkocId-7" value="&lt;font face=&quot;Avenir&quot;&gt;Dynamic&lt;/font&gt;" style="rounded=0;whiteSpace=wrap;html=1;fillColor=#A7D1A7;" parent="1" vertex="1">
          <mxGeometry x="1000" y="240" width="80" height="40" as="geometry" />
        </mxCell>
        <mxCell id="ZlwTb9oOvierl9NkocId-11" style="edgeStyle=orthogonalEdgeStyle;rounded=0;orthogonalLoop=1;jettySize=auto;html=1;entryX=0;entryY=0.5;entryDx=0;entryDy=0;" parent="1" source="ZlwTb9oOvierl9NkocId-9" target="toREJBgp3T2Z5otdVvuI-2" edge="1">
          <mxGeometry relative="1" as="geometry" />
        </mxCell>
        <mxCell id="ZlwTb9oOvierl9NkocId-9" value="&lt;font face=&quot;Avenir&quot;&gt;Static&lt;/font&gt;" style="rounded=0;whiteSpace=wrap;html=1;fillColor=#A7D1A7;" parent="1" vertex="1">
          <mxGeometry x="1000" y="320" width="80" height="40" as="geometry" />
        </mxCell>
        <mxCell id="ZlwTb9oOvierl9NkocId-15" style="edgeStyle=orthogonalEdgeStyle;rounded=0;orthogonalLoop=1;jettySize=auto;html=1;entryX=0.5;entryY=0;entryDx=0;entryDy=0;exitX=0.5;exitY=1;exitDx=0;exitDy=0;" parent="1" source="ZlwTb9oOvierl9NkocId-12" target="ZlwTb9oOvierl9NkocId-7" edge="1">
          <mxGeometry relative="1" as="geometry" />
        </mxCell>
        <mxCell id="ZlwTb9oOvierl9NkocId-12" value="&lt;font face=&quot;Avenir&quot;&gt;Consistency&lt;/font&gt;" style="rounded=0;whiteSpace=wrap;html=1;fillColor=#A7D1A7;" parent="1" vertex="1">
          <mxGeometry x="880" y="160" width="80" height="40" as="geometry" />
        </mxCell>
        <mxCell id="ZlwTb9oOvierl9NkocId-16" style="edgeStyle=orthogonalEdgeStyle;rounded=0;orthogonalLoop=1;jettySize=auto;html=1;" parent="1" source="ZlwTb9oOvierl9NkocId-13" edge="1">
          <mxGeometry relative="1" as="geometry">
            <mxPoint x="1040" y="240" as="targetPoint" />
          </mxGeometry>
        </mxCell>
        <mxCell id="ZlwTb9oOvierl9NkocId-13" value="&lt;font face=&quot;Avenir&quot;&gt;Vagueness&lt;/font&gt;" style="rounded=0;whiteSpace=wrap;html=1;fillColor=#A7D1A7;" parent="1" vertex="1">
          <mxGeometry x="1000" y="160" width="80" height="40" as="geometry" />
        </mxCell>
        <mxCell id="ZlwTb9oOvierl9NkocId-17" style="edgeStyle=orthogonalEdgeStyle;rounded=0;orthogonalLoop=1;jettySize=auto;html=1;entryX=0.5;entryY=0;entryDx=0;entryDy=0;exitX=0.5;exitY=1;exitDx=0;exitDy=0;" parent="1" source="ZlwTb9oOvierl9NkocId-14" target="ZlwTb9oOvierl9NkocId-7" edge="1">
          <mxGeometry relative="1" as="geometry" />
        </mxCell>
        <mxCell id="ZlwTb9oOvierl9NkocId-14" value="&lt;font face=&quot;Avenir&quot;&gt;Completeness&lt;/font&gt;" style="rounded=0;whiteSpace=wrap;html=1;fillColor=#A7D1A7;" parent="1" vertex="1">
          <mxGeometry x="1120" y="160" width="80" height="40" as="geometry" />
        </mxCell>
        <mxCell id="ZlwTb9oOvierl9NkocId-19" style="edgeStyle=orthogonalEdgeStyle;rounded=0;orthogonalLoop=1;jettySize=auto;html=1;entryX=0.5;entryY=1;entryDx=0;entryDy=0;" parent="1" source="ZlwTb9oOvierl9NkocId-18" target="ZlwTb9oOvierl9NkocId-9" edge="1">
          <mxGeometry relative="1" as="geometry" />
        </mxCell>
        <mxCell id="ZlwTb9oOvierl9NkocId-18" value="&lt;font face=&quot;Avenir&quot;&gt;Event Simulation&lt;/font&gt;" style="rounded=0;whiteSpace=wrap;html=1;fillColor=#A7D1A7;" parent="1" vertex="1">
          <mxGeometry x="1000" y="400" width="80" height="40" as="geometry" />
        </mxCell>
        <mxCell id="ZlwTb9oOvierl9NkocId-30" style="edgeStyle=orthogonalEdgeStyle;rounded=0;orthogonalLoop=1;jettySize=auto;html=1;exitX=0.5;exitY=0;exitDx=0;exitDy=0;entryX=0.5;entryY=1;entryDx=0;entryDy=0;" parent="1" source="ZlwTb9oOvierl9NkocId-20" target="toREJBgp3T2Z5otdVvuI-1" edge="1">
          <mxGeometry relative="1" as="geometry" />
        </mxCell>
        <mxCell id="ZlwTb9oOvierl9NkocId-20" value="&lt;font face=&quot;Avenir&quot;&gt;Lexon&lt;/font&gt;" style="rounded=0;whiteSpace=wrap;html=1;fillColor=#C3ABD0;" parent="1" vertex="1">
          <mxGeometry x="1240" y="520" width="82" height="40" as="geometry" />
        </mxCell>
        <mxCell id="ZlwTb9oOvierl9NkocId-28" style="edgeStyle=orthogonalEdgeStyle;rounded=0;orthogonalLoop=1;jettySize=auto;html=1;" parent="1" source="ZlwTb9oOvierl9NkocId-21" edge="1">
          <mxGeometry relative="1" as="geometry">
            <mxPoint x="1399.9999999999995" y="480" as="targetPoint" />
          </mxGeometry>
        </mxCell>
        <mxCell id="ZlwTb9oOvierl9NkocId-21" value="&lt;font face=&quot;Avenir&quot;&gt;CoLa&lt;/font&gt;" style="rounded=0;whiteSpace=wrap;html=1;fillColor=#C3ABD0;" parent="1" vertex="1">
          <mxGeometry x="1359" y="520" width="82" height="40" as="geometry" />
        </mxCell>
        <mxCell id="ZlwTb9oOvierl9NkocId-27" style="edgeStyle=orthogonalEdgeStyle;rounded=0;orthogonalLoop=1;jettySize=auto;html=1;entryX=0.5;entryY=1;entryDx=0;entryDy=0;exitX=0.5;exitY=0;exitDx=0;exitDy=0;" parent="1" source="ZlwTb9oOvierl9NkocId-22" target="toREJBgp3T2Z5otdVvuI-1" edge="1">
          <mxGeometry relative="1" as="geometry" />
        </mxCell>
        <mxCell id="ZlwTb9oOvierl9NkocId-22" value="&lt;font face=&quot;Avenir&quot;&gt;L4&lt;/font&gt;" style="rounded=0;whiteSpace=wrap;html=1;fillColor=#C3ABD0;" parent="1" vertex="1">
          <mxGeometry x="1478" y="520" width="82" height="40" as="geometry" />
        </mxCell>
        <mxCell id="ZlwTb9oOvierl9NkocId-32" style="edgeStyle=orthogonalEdgeStyle;rounded=0;orthogonalLoop=1;jettySize=auto;html=1;entryX=0.5;entryY=0;entryDx=0;entryDy=0;" parent="1" source="ZlwTb9oOvierl9NkocId-31" target="toREJBgp3T2Z5otdVvuI-4" edge="1">
          <mxGeometry relative="1" as="geometry" />
        </mxCell>
        <mxCell id="ZlwTb9oOvierl9NkocId-31" value="&lt;font face=&quot;Avenir&quot;&gt;Developmental Tools&lt;/font&gt;" style="rounded=0;whiteSpace=wrap;html=1;fillColor=#E8A665;" parent="1" vertex="1">
          <mxGeometry x="1340" y="120" width="120" height="40" as="geometry" />
        </mxCell>
        <mxCell id="ZlwTb9oOvierl9NkocId-38" style="edgeStyle=orthogonalEdgeStyle;rounded=0;orthogonalLoop=1;jettySize=auto;html=1;entryX=0.5;entryY=0;entryDx=0;entryDy=0;exitX=0.5;exitY=1;exitDx=0;exitDy=0;" parent="1" source="ZlwTb9oOvierl9NkocId-33" target="ZlwTb9oOvierl9NkocId-31" edge="1">
          <mxGeometry relative="1" as="geometry" />
        </mxCell>
        <mxCell id="ZlwTb9oOvierl9NkocId-33" value="&lt;font face=&quot;Avenir&quot;&gt;Syntax Highlighting&lt;/font&gt;" style="rounded=0;whiteSpace=wrap;html=1;fillColor=#E8A665;" parent="1" vertex="1">
          <mxGeometry x="1240" y="40" width="78" height="40" as="geometry" />
        </mxCell>
        <mxCell id="ZlwTb9oOvierl9NkocId-37" style="edgeStyle=orthogonalEdgeStyle;rounded=0;orthogonalLoop=1;jettySize=auto;html=1;entryX=0.5;entryY=0;entryDx=0;entryDy=0;" parent="1" source="ZlwTb9oOvierl9NkocId-34" target="ZlwTb9oOvierl9NkocId-31" edge="1">
          <mxGeometry relative="1" as="geometry" />
        </mxCell>
        <mxCell id="ZlwTb9oOvierl9NkocId-34" value="&lt;font face=&quot;Avenir&quot;&gt;Auto-Suggestion&lt;/font&gt;" style="rounded=0;whiteSpace=wrap;html=1;fillColor=#E8A665;" parent="1" vertex="1">
          <mxGeometry x="1359.5" y="40" width="80.5" height="40" as="geometry" />
        </mxCell>
        <mxCell id="ZlwTb9oOvierl9NkocId-39" style="edgeStyle=orthogonalEdgeStyle;rounded=0;orthogonalLoop=1;jettySize=auto;html=1;entryX=0.5;entryY=0;entryDx=0;entryDy=0;exitX=0.5;exitY=1;exitDx=0;exitDy=0;" parent="1" source="ZlwTb9oOvierl9NkocId-35" target="ZlwTb9oOvierl9NkocId-31" edge="1">
          <mxGeometry relative="1" as="geometry" />
        </mxCell>
        <mxCell id="ZlwTb9oOvierl9NkocId-35" value="&lt;font face=&quot;Avenir&quot;&gt;Formatting&lt;/font&gt;" style="rounded=0;whiteSpace=wrap;html=1;fillColor=#E8A665;" parent="1" vertex="1">
          <mxGeometry x="1480" y="40" width="80" height="40" as="geometry" />
        </mxCell>
        <mxCell id="mIFlO-JkNO0YrqFu7DN3-11" style="edgeStyle=orthogonalEdgeStyle;rounded=0;orthogonalLoop=1;jettySize=auto;html=1;exitX=0.5;exitY=1;exitDx=0;exitDy=0;fontSize=12;startSize=8;endSize=8;entryX=0.5;entryY=0;entryDx=0;entryDy=0;" parent="1" source="mIFlO-JkNO0YrqFu7DN3-1" target="mIFlO-JkNO0YrqFu7DN3-8" edge="1">
          <mxGeometry relative="1" as="geometry">
            <mxPoint x="-559.7272727272727" y="240" as="targetPoint" />
          </mxGeometry>
        </mxCell>
        <mxCell id="mIFlO-JkNO0YrqFu7DN3-13" style="edgeStyle=orthogonalEdgeStyle;rounded=0;orthogonalLoop=1;jettySize=auto;html=1;entryX=0.5;entryY=0;entryDx=0;entryDy=0;fontSize=12;startSize=8;endSize=8;" parent="1" source="mIFlO-JkNO0YrqFu7DN3-1" target="mIFlO-JkNO0YrqFu7DN3-2" edge="1">
          <mxGeometry relative="1" as="geometry">
            <Array as="points">
              <mxPoint x="-560" y="240" />
              <mxPoint x="-740" y="240" />
            </Array>
          </mxGeometry>
        </mxCell>
        <mxCell id="mIFlO-JkNO0YrqFu7DN3-1" value="&lt;font face=&quot;Avenir&quot;&gt;Conditional&lt;/font&gt;" style="rounded=0;whiteSpace=wrap;html=1;fillColor=#A7D1A7;" parent="1" vertex="1">
          <mxGeometry x="-600" y="160" width="80" height="40" as="geometry" />
        </mxCell>
        <mxCell id="mIFlO-JkNO0YrqFu7DN3-2" value="&lt;font face=&quot;Avenir&quot;&gt;IF&lt;/font&gt;" style="rounded=0;whiteSpace=wrap;html=1;fillColor=light-dark(#c3abd0, #294e29);" parent="1" vertex="1">
          <mxGeometry x="-780" y="280" width="80" height="40" as="geometry" />
        </mxCell>
        <mxCell id="mIFlO-JkNO0YrqFu7DN3-18" style="edgeStyle=none;curved=1;rounded=0;orthogonalLoop=1;jettySize=auto;html=1;exitX=0.5;exitY=1;exitDx=0;exitDy=0;entryX=0.5;entryY=0;entryDx=0;entryDy=0;fontSize=12;startSize=8;endSize=8;" parent="1" source="mIFlO-JkNO0YrqFu7DN3-3" target="mIFlO-JkNO0YrqFu7DN3-16" edge="1">
          <mxGeometry relative="1" as="geometry" />
        </mxCell>
        <mxCell id="mIFlO-JkNO0YrqFu7DN3-3" value="&lt;font face=&quot;Avenir&quot;&gt;Condition&lt;/font&gt;" style="rounded=0;whiteSpace=wrap;html=1;fillColor=#A7D1A7;" parent="1" vertex="1">
          <mxGeometry x="-660" y="280" width="80" height="40" as="geometry" />
        </mxCell>
        <mxCell id="mIFlO-JkNO0YrqFu7DN3-19" style="edgeStyle=none;curved=1;rounded=0;orthogonalLoop=1;jettySize=auto;html=1;entryX=0.5;entryY=0;entryDx=0;entryDy=0;fontSize=12;startSize=8;endSize=8;" parent="1" source="mIFlO-JkNO0YrqFu7DN3-4" target="mIFlO-JkNO0YrqFu7DN3-17" edge="1">
          <mxGeometry relative="1" as="geometry" />
        </mxCell>
        <mxCell id="mIFlO-JkNO0YrqFu7DN3-4" value="&lt;font face=&quot;Avenir&quot;&gt;Statement&lt;/font&gt;" style="rounded=0;whiteSpace=wrap;html=1;fillColor=#A7D1A7;" parent="1" vertex="1">
          <mxGeometry x="-420" y="280" width="80" height="40" as="geometry" />
        </mxCell>
        <mxCell id="mIFlO-JkNO0YrqFu7DN3-5" value="&lt;font face=&quot;Avenir&quot;&gt;Non-Terminal&lt;/font&gt;" style="rounded=0;whiteSpace=wrap;html=1;fillColor=#A7D1A7;" parent="1" vertex="1">
          <mxGeometry x="-440" y="120" width="80" height="40" as="geometry" />
        </mxCell>
        <mxCell id="mIFlO-JkNO0YrqFu7DN3-7" value="&lt;font face=&quot;Avenir&quot;&gt;Terminal&lt;/font&gt;" style="rounded=0;whiteSpace=wrap;html=1;fillColor=#C3ABD0;" parent="1" vertex="1">
          <mxGeometry x="-440" y="160" width="80" height="40" as="geometry" />
        </mxCell>
        <mxCell id="mIFlO-JkNO0YrqFu7DN3-8" value="&lt;font face=&quot;Avenir&quot;&gt;THEN&lt;/font&gt;" style="rounded=0;whiteSpace=wrap;html=1;fillColor=light-dark(#c3abd0, #294e29);" parent="1" vertex="1">
          <mxGeometry x="-540" y="280" width="80" height="40" as="geometry" />
        </mxCell>
        <mxCell id="mIFlO-JkNO0YrqFu7DN3-14" style="edgeStyle=orthogonalEdgeStyle;rounded=0;orthogonalLoop=1;jettySize=auto;html=1;entryX=0.5;entryY=0;entryDx=0;entryDy=0;fontSize=12;startSize=8;endSize=8;exitX=0.5;exitY=1;exitDx=0;exitDy=0;" parent="1" source="mIFlO-JkNO0YrqFu7DN3-1" target="mIFlO-JkNO0YrqFu7DN3-3" edge="1">
          <mxGeometry relative="1" as="geometry">
            <mxPoint x="-550" y="210" as="sourcePoint" />
            <mxPoint x="-730" y="290" as="targetPoint" />
            <Array as="points">
              <mxPoint x="-560" y="240" />
              <mxPoint x="-620" y="240" />
            </Array>
          </mxGeometry>
        </mxCell>
        <mxCell id="mIFlO-JkNO0YrqFu7DN3-15" style="edgeStyle=orthogonalEdgeStyle;rounded=0;orthogonalLoop=1;jettySize=auto;html=1;entryX=0.5;entryY=0;entryDx=0;entryDy=0;fontSize=12;startSize=8;endSize=8;exitX=0.5;exitY=1;exitDx=0;exitDy=0;" parent="1" source="mIFlO-JkNO0YrqFu7DN3-1" target="mIFlO-JkNO0YrqFu7DN3-4" edge="1">
          <mxGeometry relative="1" as="geometry">
            <mxPoint x="-550" y="210" as="sourcePoint" />
            <mxPoint x="-610" y="290" as="targetPoint" />
            <Array as="points">
              <mxPoint x="-560" y="240" />
              <mxPoint x="-380" y="240" />
            </Array>
          </mxGeometry>
        </mxCell>
        <mxCell id="mIFlO-JkNO0YrqFu7DN3-16" value="&lt;font face=&quot;Avenir&quot;&gt;SENTENCE&lt;/font&gt;" style="rounded=0;whiteSpace=wrap;html=1;fillColor=light-dark(#c3abd0, #294e29);" parent="1" vertex="1">
          <mxGeometry x="-660" y="360" width="80" height="40" as="geometry" />
        </mxCell>
        <mxCell id="mIFlO-JkNO0YrqFu7DN3-17" value="&lt;font face=&quot;Avenir&quot;&gt;SENTENCE&lt;/font&gt;" style="rounded=0;whiteSpace=wrap;html=1;fillColor=light-dark(#c3abd0, #294e29);" parent="1" vertex="1">
          <mxGeometry x="-420" y="360" width="80" height="40" as="geometry" />
        </mxCell>
        <mxCell id="5_p8MwsJ-TnmLGE_cLR3-1" value="" style="rounded=0;whiteSpace=wrap;html=1;fillColor=#E6E6E6;" parent="1" vertex="1">
          <mxGeometry x="240" y="1390" width="240" height="140" as="geometry" />
        </mxCell>
        <mxCell id="5_p8MwsJ-TnmLGE_cLR3-2" value="" style="rounded=0;whiteSpace=wrap;html=1;fillColor=#E6E6E6;" parent="1" vertex="1">
          <mxGeometry x="180" y="1260" width="390" height="80" as="geometry" />
        </mxCell>
        <mxCell id="5_p8MwsJ-TnmLGE_cLR3-4" value="&lt;font face=&quot;Avenir&quot;&gt;Language&lt;/font&gt;" style="rounded=0;whiteSpace=wrap;html=1;fillColor=#C3ABD0;" parent="1" vertex="1">
          <mxGeometry x="320" y="1180" width="80" height="40" as="geometry" />
        </mxCell>
        <mxCell id="5_p8MwsJ-TnmLGE_cLR3-32" style="edgeStyle=orthogonalEdgeStyle;rounded=0;orthogonalLoop=1;jettySize=auto;html=1;entryX=0;entryY=0.5;entryDx=0;entryDy=0;fontSize=12;startSize=8;endSize=8;" parent="1" source="5_p8MwsJ-TnmLGE_cLR3-6" target="5_p8MwsJ-TnmLGE_cLR3-4" edge="1">
          <mxGeometry relative="1" as="geometry" />
        </mxCell>
        <mxCell id="5_p8MwsJ-TnmLGE_cLR3-33" style="edgeStyle=none;curved=1;rounded=0;orthogonalLoop=1;jettySize=auto;html=1;entryX=0.5;entryY=0;entryDx=0;entryDy=0;fontSize=12;startSize=8;endSize=8;" parent="1" source="5_p8MwsJ-TnmLGE_cLR3-6" target="5_p8MwsJ-TnmLGE_cLR3-10" edge="1">
          <mxGeometry relative="1" as="geometry" />
        </mxCell>
        <mxCell id="5_p8MwsJ-TnmLGE_cLR3-34" style="edgeStyle=orthogonalEdgeStyle;rounded=0;orthogonalLoop=1;jettySize=auto;html=1;entryX=0.5;entryY=0;entryDx=0;entryDy=0;fontSize=12;startSize=8;endSize=8;strokeColor=default;" parent="1" source="5_p8MwsJ-TnmLGE_cLR3-6" target="5_p8MwsJ-TnmLGE_cLR3-12" edge="1">
          <mxGeometry relative="1" as="geometry">
            <Array as="points">
              <mxPoint x="240" y="1230" />
              <mxPoint x="360" y="1230" />
            </Array>
          </mxGeometry>
        </mxCell>
        <mxCell id="5_p8MwsJ-TnmLGE_cLR3-35" style="edgeStyle=orthogonalEdgeStyle;rounded=0;orthogonalLoop=1;jettySize=auto;html=1;entryX=0.5;entryY=0;entryDx=0;entryDy=0;fontSize=12;startSize=8;endSize=8;" parent="1" source="5_p8MwsJ-TnmLGE_cLR3-6" target="5_p8MwsJ-TnmLGE_cLR3-31" edge="1">
          <mxGeometry relative="1" as="geometry">
            <Array as="points">
              <mxPoint x="240" y="1230" />
              <mxPoint x="500" y="1230" />
            </Array>
          </mxGeometry>
        </mxCell>
        <mxCell id="5_p8MwsJ-TnmLGE_cLR3-6" value="&lt;font face=&quot;Avenir&quot;&gt;DESIGNER&lt;/font&gt;" style="text;html=1;align=center;verticalAlign=middle;resizable=0;points=[];autosize=1;strokeColor=none;fillColor=none;" parent="1" vertex="1">
          <mxGeometry x="200" y="1185" width="80" height="30" as="geometry" />
        </mxCell>
        <mxCell id="5_p8MwsJ-TnmLGE_cLR3-36" style="edgeStyle=orthogonalEdgeStyle;rounded=0;orthogonalLoop=1;jettySize=auto;html=1;entryX=0.5;entryY=0;entryDx=0;entryDy=0;fontSize=12;startSize=8;endSize=8;startArrow=classic;startFill=1;" parent="1" source="5_p8MwsJ-TnmLGE_cLR3-10" target="5_p8MwsJ-TnmLGE_cLR3-16" edge="1">
          <mxGeometry relative="1" as="geometry">
            <Array as="points">
              <mxPoint x="240" y="1370" />
              <mxPoint x="360" y="1370" />
            </Array>
          </mxGeometry>
        </mxCell>
        <mxCell id="5_p8MwsJ-TnmLGE_cLR3-10" value="&lt;font face=&quot;Avenir&quot;&gt;Parser&lt;/font&gt;" style="rounded=0;whiteSpace=wrap;html=1;fillColor=light-dark(#c3abd0, #4e617e);" parent="1" vertex="1">
          <mxGeometry x="200" y="1280" width="80" height="40" as="geometry" />
        </mxCell>
        <mxCell id="5_p8MwsJ-TnmLGE_cLR3-37" style="edgeStyle=orthogonalEdgeStyle;rounded=0;orthogonalLoop=1;jettySize=auto;html=1;exitX=0.5;exitY=1;exitDx=0;exitDy=0;fontSize=12;startSize=8;endSize=8;startArrow=classic;startFill=1;" parent="1" source="5_p8MwsJ-TnmLGE_cLR3-12" target="5_p8MwsJ-TnmLGE_cLR3-16" edge="1">
          <mxGeometry relative="1" as="geometry" />
        </mxCell>
        <mxCell id="5_p8MwsJ-TnmLGE_cLR3-12" value="&lt;font face=&quot;Avenir&quot;&gt;Lexer&lt;/font&gt;" style="rounded=0;whiteSpace=wrap;html=1;fillColor=light-dark(#c3abd0, #4e617e);" parent="1" vertex="1">
          <mxGeometry x="320" y="1280" width="80" height="40" as="geometry" />
        </mxCell>
        <mxCell id="5_p8MwsJ-TnmLGE_cLR3-16" value="&lt;font face=&quot;Avenir&quot;&gt;IDE&lt;/font&gt;" style="rounded=0;whiteSpace=wrap;html=1;fillColor=#91A8C9;" parent="1" vertex="1">
          <mxGeometry x="260" y="1400" width="200" height="40" as="geometry" />
        </mxCell>
        <mxCell id="5_p8MwsJ-TnmLGE_cLR3-40" style="edgeStyle=none;curved=1;rounded=0;orthogonalLoop=1;jettySize=auto;html=1;entryX=0.5;entryY=1;entryDx=0;entryDy=0;fontSize=12;startSize=8;endSize=8;startArrow=block;startFill=1;" parent="1" source="5_p8MwsJ-TnmLGE_cLR3-19" target="5_p8MwsJ-TnmLGE_cLR3-16" edge="1">
          <mxGeometry relative="1" as="geometry" />
        </mxCell>
        <mxCell id="5_p8MwsJ-TnmLGE_cLR3-19" value="&lt;font face=&quot;Avenir&quot;&gt;Contract&lt;/font&gt;" style="rounded=0;whiteSpace=wrap;html=1;fillColor=#C3ABD0;" parent="1" vertex="1">
          <mxGeometry x="320" y="1475" width="80" height="40" as="geometry" />
        </mxCell>
        <mxCell id="5_p8MwsJ-TnmLGE_cLR3-21" style="edgeStyle=orthogonalEdgeStyle;rounded=0;orthogonalLoop=1;jettySize=auto;html=1;entryX=0.5;entryY=1;entryDx=0;entryDy=0;" parent="1" source="5_p8MwsJ-TnmLGE_cLR3-22" target="5_p8MwsJ-TnmLGE_cLR3-19" edge="1">
          <mxGeometry relative="1" as="geometry" />
        </mxCell>
        <mxCell id="5_p8MwsJ-TnmLGE_cLR3-22" value="&lt;font face=&quot;Avenir&quot;&gt;LAWYER&lt;/font&gt;" style="text;html=1;align=center;verticalAlign=middle;resizable=0;points=[];autosize=1;strokeColor=none;fillColor=none;" parent="1" vertex="1">
          <mxGeometry x="325" y="1540" width="70" height="30" as="geometry" />
        </mxCell>
        <mxCell id="5_p8MwsJ-TnmLGE_cLR3-23" value="&lt;font face=&quot;Avenir&quot;&gt;Designer&amp;nbsp;&lt;/font&gt;&lt;div&gt;&lt;font face=&quot;Avenir&quot;&gt;Facing&lt;/font&gt;&lt;/div&gt;" style="text;html=1;align=center;verticalAlign=middle;resizable=0;points=[];autosize=1;strokeColor=none;fillColor=none;" parent="1" vertex="1">
          <mxGeometry x="100" y="1280" width="80" height="40" as="geometry" />
        </mxCell>
        <mxCell id="5_p8MwsJ-TnmLGE_cLR3-24" value="&lt;font face=&quot;Avenir&quot;&gt;Lawyer Facing&lt;/font&gt;" style="text;html=1;align=center;verticalAlign=middle;resizable=0;points=[];autosize=1;strokeColor=none;fillColor=none;" parent="1" vertex="1">
          <mxGeometry x="145" y="1475" width="100" height="30" as="geometry" />
        </mxCell>
        <mxCell id="5_p8MwsJ-TnmLGE_cLR3-25" value="&lt;font face=&quot;Avenir&quot;&gt;User/Dev Interactions&lt;/font&gt;" style="rounded=0;whiteSpace=wrap;html=1;fillColor=#C3ABD0;" parent="1" vertex="1">
          <mxGeometry x="680" y="1200" width="80" height="40" as="geometry" />
        </mxCell>
        <mxCell id="5_p8MwsJ-TnmLGE_cLR3-26" value="&lt;font face=&quot;Avenir&quot;&gt;Tools&lt;/font&gt;" style="rounded=0;whiteSpace=wrap;html=1;fillColor=#A7D1A7;" parent="1" vertex="1">
          <mxGeometry x="680" y="1240" width="80" height="40" as="geometry" />
        </mxCell>
        <mxCell id="5_p8MwsJ-TnmLGE_cLR3-38" style="edgeStyle=orthogonalEdgeStyle;rounded=0;orthogonalLoop=1;jettySize=auto;html=1;entryX=0.5;entryY=0;entryDx=0;entryDy=0;fontSize=12;startSize=8;endSize=8;startArrow=classic;startFill=1;" parent="1" source="5_p8MwsJ-TnmLGE_cLR3-31" target="5_p8MwsJ-TnmLGE_cLR3-16" edge="1">
          <mxGeometry relative="1" as="geometry">
            <Array as="points">
              <mxPoint x="500" y="1370" />
              <mxPoint x="360" y="1370" />
            </Array>
          </mxGeometry>
        </mxCell>
        <mxCell id="5_p8MwsJ-TnmLGE_cLR3-31" value="&lt;font face=&quot;Avenir&quot;&gt;Language Server Protocol&lt;/font&gt;" style="rounded=0;whiteSpace=wrap;html=1;fillColor=light-dark(#c3abd0, #4e617e);" parent="1" vertex="1">
          <mxGeometry x="440" y="1280" width="120" height="40" as="geometry" />
        </mxCell>
        <mxCell id="NY-ZdKfG21k544bjwJPL-24" value="&lt;font face=&quot;Avenir&quot;&gt;BNF Form&lt;/font&gt;" style="rounded=0;whiteSpace=wrap;html=1;fillColor=#A7D1A7;" parent="1" vertex="1">
          <mxGeometry x="-640" y="680" width="80" height="40" as="geometry" />
        </mxCell>
        <mxCell id="NY-ZdKfG21k544bjwJPL-29" value="&lt;font style=&quot;font-size: 12px;&quot; face=&quot;Avenir&quot;&gt;Current Symbol&lt;/font&gt;" style="rounded=0;whiteSpace=wrap;html=1;fillColor=#FFE599;" parent="1" vertex="1">
          <mxGeometry x="-480" y="680" width="80" height="40" as="geometry" />
        </mxCell>
        <mxCell id="NY-ZdKfG21k544bjwJPL-32" value="&lt;font style=&quot;font-size: 12px;&quot; face=&quot;Avenir&quot;&gt;Previous Symbol&lt;/font&gt;" style="rounded=0;whiteSpace=wrap;html=1;fillColor=#A9C4EB;" parent="1" vertex="1">
          <mxGeometry x="-400" y="680" width="80" height="40" as="geometry" />
        </mxCell>
        <mxCell id="NY-ZdKfG21k544bjwJPL-33" value="&lt;font style=&quot;font-size: 12px;&quot; face=&quot;Avenir&quot;&gt;Next&lt;/font&gt;&lt;font style=&quot;font-size: 12px;&quot; face=&quot;Avenir&quot;&gt;&amp;nbsp;&lt;/font&gt;&lt;div&gt;&lt;font style=&quot;font-size: 12px;&quot; face=&quot;Avenir&quot;&gt;Symbol&lt;/font&gt;&lt;/div&gt;" style="rounded=0;whiteSpace=wrap;html=1;fillColor=#C3ABD0;" parent="1" vertex="1">
          <mxGeometry x="-320" y="680" width="80" height="40" as="geometry" />
        </mxCell>
        <mxCell id="NY-ZdKfG21k544bjwJPL-34" value="&lt;font style=&quot;font-size: 12px;&quot; face=&quot;Avenir&quot;&gt;Parent&lt;/font&gt;&lt;div&gt;&lt;font style=&quot;font-size: 12px;&quot; face=&quot;Avenir&quot;&gt;Symbol&lt;/font&gt;&lt;/div&gt;" style="rounded=0;whiteSpace=wrap;html=1;fillColor=#E1D5E7;" parent="1" vertex="1">
          <mxGeometry x="-240" y="680" width="80" height="40" as="geometry" />
        </mxCell>
        <mxCell id="NY-ZdKfG21k544bjwJPL-38" value="" style="rounded=0;whiteSpace=wrap;html=1;fillColor=#E1D5E7;" parent="1" vertex="1">
          <mxGeometry x="-609" y="740" width="140" height="30" as="geometry" />
        </mxCell>
        <mxCell id="NY-ZdKfG21k544bjwJPL-41" value="&lt;font style=&quot;font-size: 18px;&quot; face=&quot;Avenir&quot;&gt;&lt;span style=&quot;white-space: pre;&quot;&gt;&#x9;&lt;/span&gt;&amp;lt;specific-date&amp;gt; ::= on the &amp;lt;num&amp;gt; &amp;lt;month&amp;gt; &amp;lt;num&amp;gt;&lt;/font&gt;&lt;div&gt;&lt;font style=&quot;font-size: 18px;&quot; face=&quot;Avenir&quot;&gt;&lt;span style=&quot;white-space: pre;&quot;&gt;&#x9;&lt;span style=&quot;white-space: pre;&quot;&gt;&#x9;&lt;/span&gt;&lt;/span&gt;| on &amp;lt;num&amp;gt; &amp;lt;month&amp;gt; &amp;lt;num&amp;gt;&lt;br&gt;&lt;/font&gt;&lt;/div&gt;&lt;div&gt;&lt;font style=&quot;font-size: 18px;&quot; face=&quot;Avenir&quot;&gt;&lt;span style=&quot;white-space: pre;&quot;&gt;&#x9;&lt;/span&gt;&lt;span style=&quot;white-space: pre;&quot;&gt;&#x9;&lt;/span&gt;;&lt;br&gt;&lt;/font&gt;&lt;/div&gt;" style="rounded=0;whiteSpace=wrap;html=1;fillColor=none;align=left;" parent="1" vertex="1">
          <mxGeometry x="-640" y="720" width="480" height="120" as="geometry" />
        </mxCell>
        <mxCell id="NY-ZdKfG21k544bjwJPL-53" value="" style="shape=flexArrow;endArrow=classic;html=1;rounded=0;entryX=0.5;entryY=0;entryDx=0;entryDy=0;exitX=0.5;exitY=1;exitDx=0;exitDy=0;" parent="1" source="NY-ZdKfG21k544bjwJPL-41" target="NY-ZdKfG21k544bjwJPL-31" edge="1">
          <mxGeometry width="50" height="50" relative="1" as="geometry">
            <mxPoint x="-400" y="850" as="sourcePoint" />
            <mxPoint x="-350" y="740" as="targetPoint" />
          </mxGeometry>
        </mxCell>
        <mxCell id="NY-ZdKfG21k544bjwJPL-58" value="&lt;font face=&quot;Avenir&quot;&gt;Tuple Form&lt;/font&gt;" style="rounded=0;whiteSpace=wrap;html=1;fillColor=#A7D1A7;" parent="1" vertex="1">
          <mxGeometry x="-238" y="950" width="80" height="40" as="geometry" />
        </mxCell>
        <mxCell id="NY-ZdKfG21k544bjwJPL-65" value="" style="group" parent="1" vertex="1" connectable="0">
          <mxGeometry x="-640" y="910" width="480" height="40" as="geometry" />
        </mxCell>
        <mxCell id="NY-ZdKfG21k544bjwJPL-66" value="" style="rounded=0;whiteSpace=wrap;html=1;fillColor=#C3ABD0;" parent="NY-ZdKfG21k544bjwJPL-65" vertex="1">
          <mxGeometry x="382" y="5" width="60" height="30" as="geometry" />
        </mxCell>
        <mxCell id="NY-ZdKfG21k544bjwJPL-67" value="" style="rounded=0;whiteSpace=wrap;html=1;fillColor=#FFE599;" parent="NY-ZdKfG21k544bjwJPL-65" vertex="1">
          <mxGeometry x="41" y="5" width="79" height="30" as="geometry" />
        </mxCell>
        <mxCell id="NY-ZdKfG21k544bjwJPL-68" value="" style="rounded=0;whiteSpace=wrap;html=1;fillColor=#A9C4EB;" parent="NY-ZdKfG21k544bjwJPL-65" vertex="1">
          <mxGeometry x="129" y="5" width="60" height="30" as="geometry" />
        </mxCell>
        <mxCell id="NY-ZdKfG21k544bjwJPL-69" value="" style="rounded=0;whiteSpace=wrap;html=1;fillColor=#E1D5E7;" parent="NY-ZdKfG21k544bjwJPL-65" vertex="1">
          <mxGeometry x="196" y="5" width="130" height="30" as="geometry" />
        </mxCell>
        <mxCell id="NY-ZdKfG21k544bjwJPL-70" value="&lt;font style=&quot;font-size: 18px;&quot; face=&quot;Avenir&quot;&gt;&amp;nbsp;(&amp;nbsp; &amp;lt;month&amp;gt;, &amp;lt;num&amp;gt;,&amp;nbsp; &amp;nbsp;&lt;/font&gt;&lt;span style=&quot;font-family: Avenir; font-size: 18px;&quot;&gt;&amp;nbsp;&amp;nbsp;&lt;/span&gt;&lt;font style=&quot;font-size: 18px;&quot; face=&quot;Avenir&quot;&gt;&amp;nbsp;&amp;nbsp; ERROR&amp;nbsp; &amp;nbsp; &amp;nbsp; &amp;nbsp; &amp;nbsp;) -&amp;gt; {&amp;nbsp; &amp;lt;num&amp;gt;&amp;nbsp; }&lt;/font&gt;" style="rounded=0;whiteSpace=wrap;html=1;fillColor=none;align=center;" parent="NY-ZdKfG21k544bjwJPL-65" vertex="1">
          <mxGeometry width="480" height="40" as="geometry" />
        </mxCell>
        <mxCell id="NY-ZdKfG21k544bjwJPL-54" value="" style="group" parent="1" vertex="1" connectable="0">
          <mxGeometry x="-640" y="870" width="480" height="40" as="geometry" />
        </mxCell>
        <mxCell id="NY-ZdKfG21k544bjwJPL-49" value="" style="rounded=0;whiteSpace=wrap;html=1;fillColor=#C3ABD0;" parent="NY-ZdKfG21k544bjwJPL-54" vertex="1">
          <mxGeometry x="382" y="5" width="60" height="30" as="geometry" />
        </mxCell>
        <mxCell id="NY-ZdKfG21k544bjwJPL-51" value="" style="rounded=0;whiteSpace=wrap;html=1;fillColor=#FFE599;" parent="NY-ZdKfG21k544bjwJPL-54" vertex="1">
          <mxGeometry x="41" y="5" width="79" height="30" as="geometry" />
        </mxCell>
        <mxCell id="NY-ZdKfG21k544bjwJPL-50" value="" style="rounded=0;whiteSpace=wrap;html=1;fillColor=#A9C4EB;" parent="NY-ZdKfG21k544bjwJPL-54" vertex="1">
          <mxGeometry x="129" y="5" width="60" height="30" as="geometry" />
        </mxCell>
        <mxCell id="NY-ZdKfG21k544bjwJPL-52" value="" style="rounded=0;whiteSpace=wrap;html=1;fillColor=#E1D5E7;" parent="NY-ZdKfG21k544bjwJPL-54" vertex="1">
          <mxGeometry x="196" y="5" width="130" height="30" as="geometry" />
        </mxCell>
        <mxCell id="NY-ZdKfG21k544bjwJPL-31" value="&lt;font style=&quot;font-size: 18px;&quot; face=&quot;Avenir&quot;&gt;&amp;nbsp;(&amp;nbsp; &amp;lt;month&amp;gt;, &amp;lt;num&amp;gt;, &amp;lt;specific-date&amp;gt;&amp;nbsp; ) -&amp;gt; {&amp;nbsp; &amp;lt;num&amp;gt;&amp;nbsp; }&lt;/font&gt;" style="rounded=0;whiteSpace=wrap;html=1;fillColor=none;align=center;" parent="NY-ZdKfG21k544bjwJPL-54" vertex="1">
          <mxGeometry width="480" height="40" as="geometry" />
        </mxCell>
        <mxCell id="NY-ZdKfG21k544bjwJPL-71" value="&lt;font style=&quot;font-size: 12px;&quot; face=&quot;Avenir&quot;&gt;Current Symbol&lt;/font&gt;" style="rounded=0;whiteSpace=wrap;html=1;fillColor=#FFE599;" parent="1" vertex="1">
          <mxGeometry x="120" y="770" width="80" height="40" as="geometry" />
        </mxCell>
        <mxCell id="NY-ZdKfG21k544bjwJPL-72" value="&lt;font style=&quot;font-size: 12px;&quot; face=&quot;Avenir&quot;&gt;CC-IDE Output&lt;/font&gt;" style="rounded=0;whiteSpace=wrap;html=1;fillColor=#A9C4EB;" parent="1" vertex="1">
          <mxGeometry x="400" y="920" width="80" height="40" as="geometry" />
        </mxCell>
        <mxCell id="NY-ZdKfG21k544bjwJPL-82" style="edgeStyle=orthogonalEdgeStyle;rounded=0;orthogonalLoop=1;jettySize=auto;html=1;entryX=0;entryY=0;entryDx=0;entryDy=0;" parent="1" source="NY-ZdKfG21k544bjwJPL-73" target="NY-ZdKfG21k544bjwJPL-80" edge="1">
          <mxGeometry relative="1" as="geometry">
            <Array as="points">
              <mxPoint x="150" y="940" />
              <mxPoint x="150" y="940" />
            </Array>
          </mxGeometry>
        </mxCell>
        <mxCell id="NY-ZdKfG21k544bjwJPL-73" value="&lt;font face=&quot;Avenir&quot;&gt;Configuration&lt;/font&gt;" style="rounded=0;whiteSpace=wrap;html=1;fillColor=#C3ABD0;" parent="1" vertex="1">
          <mxGeometry x="40" y="920" width="80" height="40" as="geometry" />
        </mxCell>
        <mxCell id="NY-ZdKfG21k544bjwJPL-74" value="&lt;font face=&quot;Avenir&quot;&gt;Syntax Highlighting&lt;/font&gt;" style="rounded=0;whiteSpace=wrap;html=1;fillColor=#E1D5E7;" parent="1" vertex="1">
          <mxGeometry x="160" y="900" width="80" height="40" as="geometry" />
        </mxCell>
        <mxCell id="NY-ZdKfG21k544bjwJPL-84" style="edgeStyle=orthogonalEdgeStyle;rounded=0;orthogonalLoop=1;jettySize=auto;html=1;entryX=0;entryY=0.5;entryDx=0;entryDy=0;" parent="1" source="NY-ZdKfG21k544bjwJPL-75" target="NY-ZdKfG21k544bjwJPL-72" edge="1">
          <mxGeometry relative="1" as="geometry" />
        </mxCell>
        <mxCell id="NY-ZdKfG21k544bjwJPL-75" value="&lt;font face=&quot;Avenir&quot;&gt;Parser CSS&lt;/font&gt;" style="rounded=0;whiteSpace=wrap;html=1;fillColor=#A7D1A7;" parent="1" vertex="1">
          <mxGeometry x="280" y="920" width="80" height="40" as="geometry" />
        </mxCell>
        <mxCell id="NY-ZdKfG21k544bjwJPL-83" style="edgeStyle=orthogonalEdgeStyle;rounded=0;orthogonalLoop=1;jettySize=auto;html=1;entryX=0;entryY=0.5;entryDx=0;entryDy=0;exitX=1;exitY=0;exitDx=0;exitDy=0;" parent="1" source="NY-ZdKfG21k544bjwJPL-80" target="NY-ZdKfG21k544bjwJPL-75" edge="1">
          <mxGeometry relative="1" as="geometry">
            <Array as="points">
              <mxPoint x="250" y="940" />
              <mxPoint x="250" y="940" />
            </Array>
          </mxGeometry>
        </mxCell>
        <mxCell id="NY-ZdKfG21k544bjwJPL-80" value="&lt;font face=&quot;Avenir&quot;&gt;Auto-Formatting&lt;/font&gt;" style="rounded=0;whiteSpace=wrap;html=1;fillColor=#E1D5E7;" parent="1" vertex="1">
          <mxGeometry x="160" y="940" width="80" height="40" as="geometry" />
        </mxCell>
        <mxCell id="KbI-gIg1m7kFd8Ul9KuT-13" value="Component" style="swimlane;fontStyle=1;align=center;verticalAlign=top;childLayout=stackLayout;horizontal=1;startSize=26;horizontalStack=0;resizeParent=1;resizeParentMax=0;resizeLast=0;collapsible=1;marginBottom=0;whiteSpace=wrap;html=1;fontFamily=Avenir;" vertex="1" parent="1">
          <mxGeometry x="80" y="2200" width="160" height="86" as="geometry" />
        </mxCell>
        <mxCell id="KbI-gIg1m7kFd8Ul9KuT-14" value="+ field: type" style="text;strokeColor=none;fillColor=none;align=left;verticalAlign=top;spacingLeft=4;spacingRight=4;overflow=hidden;rotatable=0;points=[[0,0.5],[1,0.5]];portConstraint=eastwest;whiteSpace=wrap;html=1;fontFamily=Avenir;" vertex="1" parent="KbI-gIg1m7kFd8Ul9KuT-13">
          <mxGeometry y="26" width="160" height="26" as="geometry" />
        </mxCell>
        <mxCell id="KbI-gIg1m7kFd8Ul9KuT-15" value="" style="line;strokeWidth=1;fillColor=none;align=left;verticalAlign=middle;spacingTop=-1;spacingLeft=3;spacingRight=3;rotatable=0;labelPosition=right;points=[];portConstraint=eastwest;strokeColor=inherit;fontFamily=Avenir;" vertex="1" parent="KbI-gIg1m7kFd8Ul9KuT-13">
          <mxGeometry y="52" width="160" height="8" as="geometry" />
        </mxCell>
        <mxCell id="KbI-gIg1m7kFd8Ul9KuT-16" value="+ method(type): type" style="text;strokeColor=none;fillColor=none;align=left;verticalAlign=top;spacingLeft=4;spacingRight=4;overflow=hidden;rotatable=0;points=[[0,0.5],[1,0.5]];portConstraint=eastwest;whiteSpace=wrap;html=1;fontFamily=Avenir;" vertex="1" parent="KbI-gIg1m7kFd8Ul9KuT-13">
          <mxGeometry y="60" width="160" height="26" as="geometry" />
        </mxCell>
        <mxCell id="KbI-gIg1m7kFd8Ul9KuT-17" value="MetaData" style="swimlane;fontStyle=1;align=center;verticalAlign=top;childLayout=stackLayout;horizontal=1;startSize=26;horizontalStack=0;resizeParent=1;resizeParentMax=0;resizeLast=0;collapsible=1;marginBottom=0;whiteSpace=wrap;html=1;fontFamily=Avenir;" vertex="1" parent="1">
          <mxGeometry x="80" y="2678" width="160" height="86" as="geometry" />
        </mxCell>
        <mxCell id="KbI-gIg1m7kFd8Ul9KuT-18" value="+ field: type" style="text;strokeColor=none;fillColor=none;align=left;verticalAlign=top;spacingLeft=4;spacingRight=4;overflow=hidden;rotatable=0;points=[[0,0.5],[1,0.5]];portConstraint=eastwest;whiteSpace=wrap;html=1;fontFamily=Avenir;" vertex="1" parent="KbI-gIg1m7kFd8Ul9KuT-17">
          <mxGeometry y="26" width="160" height="26" as="geometry" />
        </mxCell>
        <mxCell id="KbI-gIg1m7kFd8Ul9KuT-19" value="" style="line;strokeWidth=1;fillColor=none;align=left;verticalAlign=middle;spacingTop=-1;spacingLeft=3;spacingRight=3;rotatable=0;labelPosition=right;points=[];portConstraint=eastwest;strokeColor=inherit;fontFamily=Avenir;" vertex="1" parent="KbI-gIg1m7kFd8Ul9KuT-17">
          <mxGeometry y="52" width="160" height="8" as="geometry" />
        </mxCell>
        <mxCell id="KbI-gIg1m7kFd8Ul9KuT-20" value="+ method(type): type" style="text;strokeColor=none;fillColor=none;align=left;verticalAlign=top;spacingLeft=4;spacingRight=4;overflow=hidden;rotatable=0;points=[[0,0.5],[1,0.5]];portConstraint=eastwest;whiteSpace=wrap;html=1;fontFamily=Avenir;" vertex="1" parent="KbI-gIg1m7kFd8Ul9KuT-17">
          <mxGeometry y="60" width="160" height="26" as="geometry" />
        </mxCell>
        <mxCell id="KbI-gIg1m7kFd8Ul9KuT-108" style="edgeStyle=orthogonalEdgeStyle;rounded=0;orthogonalLoop=1;jettySize=auto;html=1;fontFamily=Avenir;" edge="1" parent="1" source="KbI-gIg1m7kFd8Ul9KuT-21" target="KbI-gIg1m7kFd8Ul9KuT-103">
          <mxGeometry relative="1" as="geometry" />
        </mxCell>
        <mxCell id="KbI-gIg1m7kFd8Ul9KuT-115" style="edgeStyle=orthogonalEdgeStyle;rounded=0;orthogonalLoop=1;jettySize=auto;html=1;fontFamily=Avenir;" edge="1" parent="1" source="KbI-gIg1m7kFd8Ul9KuT-21" target="KbI-gIg1m7kFd8Ul9KuT-17">
          <mxGeometry relative="1" as="geometry">
            <Array as="points">
              <mxPoint x="40" y="2563" />
              <mxPoint x="40" y="2640" />
              <mxPoint x="160" y="2640" />
            </Array>
          </mxGeometry>
        </mxCell>
        <mxCell id="KbI-gIg1m7kFd8Ul9KuT-116" style="edgeStyle=orthogonalEdgeStyle;rounded=0;orthogonalLoop=1;jettySize=auto;html=1;fontFamily=Avenir;" edge="1" parent="1" source="KbI-gIg1m7kFd8Ul9KuT-21" target="KbI-gIg1m7kFd8Ul9KuT-25">
          <mxGeometry relative="1" as="geometry" />
        </mxCell>
        <mxCell id="KbI-gIg1m7kFd8Ul9KuT-21" value="Handler" style="swimlane;fontStyle=1;align=center;verticalAlign=top;childLayout=stackLayout;horizontal=1;startSize=26;horizontalStack=0;resizeParent=1;resizeParentMax=0;resizeLast=0;collapsible=1;marginBottom=0;whiteSpace=wrap;html=1;fontFamily=Avenir;" vertex="1" parent="1">
          <mxGeometry x="-200" y="2520" width="160" height="86" as="geometry" />
        </mxCell>
        <mxCell id="KbI-gIg1m7kFd8Ul9KuT-22" value="+ field: type" style="text;strokeColor=none;fillColor=none;align=left;verticalAlign=top;spacingLeft=4;spacingRight=4;overflow=hidden;rotatable=0;points=[[0,0.5],[1,0.5]];portConstraint=eastwest;whiteSpace=wrap;html=1;fontFamily=Avenir;" vertex="1" parent="KbI-gIg1m7kFd8Ul9KuT-21">
          <mxGeometry y="26" width="160" height="26" as="geometry" />
        </mxCell>
        <mxCell id="KbI-gIg1m7kFd8Ul9KuT-23" value="" style="line;strokeWidth=1;fillColor=none;align=left;verticalAlign=middle;spacingTop=-1;spacingLeft=3;spacingRight=3;rotatable=0;labelPosition=right;points=[];portConstraint=eastwest;strokeColor=inherit;fontFamily=Avenir;" vertex="1" parent="KbI-gIg1m7kFd8Ul9KuT-21">
          <mxGeometry y="52" width="160" height="8" as="geometry" />
        </mxCell>
        <mxCell id="KbI-gIg1m7kFd8Ul9KuT-24" value="+ method(type): type" style="text;strokeColor=none;fillColor=none;align=left;verticalAlign=top;spacingLeft=4;spacingRight=4;overflow=hidden;rotatable=0;points=[[0,0.5],[1,0.5]];portConstraint=eastwest;whiteSpace=wrap;html=1;fontFamily=Avenir;" vertex="1" parent="KbI-gIg1m7kFd8Ul9KuT-21">
          <mxGeometry y="60" width="160" height="26" as="geometry" />
        </mxCell>
        <mxCell id="KbI-gIg1m7kFd8Ul9KuT-127" style="edgeStyle=orthogonalEdgeStyle;rounded=0;orthogonalLoop=1;jettySize=auto;html=1;fontFamily=Avenir;" edge="1" parent="1" source="KbI-gIg1m7kFd8Ul9KuT-33" target="KbI-gIg1m7kFd8Ul9KuT-53">
          <mxGeometry relative="1" as="geometry" />
        </mxCell>
        <mxCell id="KbI-gIg1m7kFd8Ul9KuT-128" style="edgeStyle=orthogonalEdgeStyle;rounded=0;orthogonalLoop=1;jettySize=auto;html=1;fontFamily=Avenir;" edge="1" parent="1" source="KbI-gIg1m7kFd8Ul9KuT-33" target="KbI-gIg1m7kFd8Ul9KuT-49">
          <mxGeometry relative="1" as="geometry" />
        </mxCell>
        <mxCell id="KbI-gIg1m7kFd8Ul9KuT-129" style="edgeStyle=orthogonalEdgeStyle;rounded=0;orthogonalLoop=1;jettySize=auto;html=1;fontFamily=Avenir;" edge="1" parent="1" source="KbI-gIg1m7kFd8Ul9KuT-33" target="KbI-gIg1m7kFd8Ul9KuT-61">
          <mxGeometry relative="1" as="geometry">
            <Array as="points">
              <mxPoint x="-780" y="2563" />
              <mxPoint x="-780" y="2320.0000000000005" />
            </Array>
          </mxGeometry>
        </mxCell>
        <mxCell id="KbI-gIg1m7kFd8Ul9KuT-130" style="edgeStyle=orthogonalEdgeStyle;rounded=0;orthogonalLoop=1;jettySize=auto;html=1;fontFamily=Avenir;" edge="1" parent="1" source="KbI-gIg1m7kFd8Ul9KuT-33" target="KbI-gIg1m7kFd8Ul9KuT-57">
          <mxGeometry relative="1" as="geometry">
            <Array as="points">
              <mxPoint x="-780" y="2563" />
              <mxPoint x="-780" y="2320" />
            </Array>
          </mxGeometry>
        </mxCell>
        <mxCell id="KbI-gIg1m7kFd8Ul9KuT-33" value="Visualiser" style="swimlane;fontStyle=1;align=center;verticalAlign=top;childLayout=stackLayout;horizontal=1;startSize=26;horizontalStack=0;resizeParent=1;resizeParentMax=0;resizeLast=0;collapsible=1;marginBottom=0;whiteSpace=wrap;html=1;fontFamily=Avenir;" vertex="1" parent="1">
          <mxGeometry x="-760" y="2520" width="160" height="86" as="geometry" />
        </mxCell>
        <mxCell id="KbI-gIg1m7kFd8Ul9KuT-34" value="+ field: type" style="text;strokeColor=none;fillColor=none;align=left;verticalAlign=top;spacingLeft=4;spacingRight=4;overflow=hidden;rotatable=0;points=[[0,0.5],[1,0.5]];portConstraint=eastwest;whiteSpace=wrap;html=1;fontFamily=Avenir;" vertex="1" parent="KbI-gIg1m7kFd8Ul9KuT-33">
          <mxGeometry y="26" width="160" height="26" as="geometry" />
        </mxCell>
        <mxCell id="KbI-gIg1m7kFd8Ul9KuT-35" value="" style="line;strokeWidth=1;fillColor=none;align=left;verticalAlign=middle;spacingTop=-1;spacingLeft=3;spacingRight=3;rotatable=0;labelPosition=right;points=[];portConstraint=eastwest;strokeColor=inherit;fontFamily=Avenir;" vertex="1" parent="KbI-gIg1m7kFd8Ul9KuT-33">
          <mxGeometry y="52" width="160" height="8" as="geometry" />
        </mxCell>
        <mxCell id="KbI-gIg1m7kFd8Ul9KuT-36" value="+ method(type): type" style="text;strokeColor=none;fillColor=none;align=left;verticalAlign=top;spacingLeft=4;spacingRight=4;overflow=hidden;rotatable=0;points=[[0,0.5],[1,0.5]];portConstraint=eastwest;whiteSpace=wrap;html=1;fontFamily=Avenir;" vertex="1" parent="KbI-gIg1m7kFd8Ul9KuT-33">
          <mxGeometry y="60" width="160" height="26" as="geometry" />
        </mxCell>
        <mxCell id="KbI-gIg1m7kFd8Ul9KuT-141" style="edgeStyle=orthogonalEdgeStyle;rounded=0;orthogonalLoop=1;jettySize=auto;html=1;fontFamily=Avenir;" edge="1" parent="1" source="KbI-gIg1m7kFd8Ul9KuT-37" target="KbI-gIg1m7kFd8Ul9KuT-137">
          <mxGeometry relative="1" as="geometry" />
        </mxCell>
        <mxCell id="KbI-gIg1m7kFd8Ul9KuT-37" value="InteractiveAnalysis" style="swimlane;fontStyle=1;align=center;verticalAlign=top;childLayout=stackLayout;horizontal=1;startSize=26;horizontalStack=0;resizeParent=1;resizeParentMax=0;resizeLast=0;collapsible=1;marginBottom=0;whiteSpace=wrap;html=1;fontFamily=Avenir;" vertex="1" parent="1">
          <mxGeometry x="-760" y="2680" width="160" height="86" as="geometry" />
        </mxCell>
        <mxCell id="KbI-gIg1m7kFd8Ul9KuT-38" value="+ field: type" style="text;strokeColor=none;fillColor=none;align=left;verticalAlign=top;spacingLeft=4;spacingRight=4;overflow=hidden;rotatable=0;points=[[0,0.5],[1,0.5]];portConstraint=eastwest;whiteSpace=wrap;html=1;fontFamily=Avenir;" vertex="1" parent="KbI-gIg1m7kFd8Ul9KuT-37">
          <mxGeometry y="26" width="160" height="26" as="geometry" />
        </mxCell>
        <mxCell id="KbI-gIg1m7kFd8Ul9KuT-39" value="" style="line;strokeWidth=1;fillColor=none;align=left;verticalAlign=middle;spacingTop=-1;spacingLeft=3;spacingRight=3;rotatable=0;labelPosition=right;points=[];portConstraint=eastwest;strokeColor=inherit;fontFamily=Avenir;" vertex="1" parent="KbI-gIg1m7kFd8Ul9KuT-37">
          <mxGeometry y="52" width="160" height="8" as="geometry" />
        </mxCell>
        <mxCell id="KbI-gIg1m7kFd8Ul9KuT-40" value="+ method(type): type" style="text;strokeColor=none;fillColor=none;align=left;verticalAlign=top;spacingLeft=4;spacingRight=4;overflow=hidden;rotatable=0;points=[[0,0.5],[1,0.5]];portConstraint=eastwest;whiteSpace=wrap;html=1;fontFamily=Avenir;" vertex="1" parent="KbI-gIg1m7kFd8Ul9KuT-37">
          <mxGeometry y="60" width="160" height="26" as="geometry" />
        </mxCell>
        <mxCell id="KbI-gIg1m7kFd8Ul9KuT-135" style="edgeStyle=orthogonalEdgeStyle;rounded=0;orthogonalLoop=1;jettySize=auto;html=1;entryX=0.5;entryY=0;entryDx=0;entryDy=0;fontFamily=Avenir;" edge="1" parent="1" source="KbI-gIg1m7kFd8Ul9KuT-41" target="KbI-gIg1m7kFd8Ul9KuT-131">
          <mxGeometry relative="1" as="geometry" />
        </mxCell>
        <mxCell id="KbI-gIg1m7kFd8Ul9KuT-41" value="StaticAnalysis" style="swimlane;fontStyle=1;align=center;verticalAlign=top;childLayout=stackLayout;horizontal=1;startSize=26;horizontalStack=0;resizeParent=1;resizeParentMax=0;resizeLast=0;collapsible=1;marginBottom=0;whiteSpace=wrap;html=1;fontFamily=Avenir;" vertex="1" parent="1">
          <mxGeometry x="-480" y="2680" width="160" height="86" as="geometry" />
        </mxCell>
        <mxCell id="KbI-gIg1m7kFd8Ul9KuT-42" value="+ field: type" style="text;strokeColor=none;fillColor=none;align=left;verticalAlign=top;spacingLeft=4;spacingRight=4;overflow=hidden;rotatable=0;points=[[0,0.5],[1,0.5]];portConstraint=eastwest;whiteSpace=wrap;html=1;fontFamily=Avenir;" vertex="1" parent="KbI-gIg1m7kFd8Ul9KuT-41">
          <mxGeometry y="26" width="160" height="26" as="geometry" />
        </mxCell>
        <mxCell id="KbI-gIg1m7kFd8Ul9KuT-43" value="" style="line;strokeWidth=1;fillColor=none;align=left;verticalAlign=middle;spacingTop=-1;spacingLeft=3;spacingRight=3;rotatable=0;labelPosition=right;points=[];portConstraint=eastwest;strokeColor=inherit;fontFamily=Avenir;" vertex="1" parent="KbI-gIg1m7kFd8Ul9KuT-41">
          <mxGeometry y="52" width="160" height="8" as="geometry" />
        </mxCell>
        <mxCell id="KbI-gIg1m7kFd8Ul9KuT-44" value="+ method(type): type" style="text;strokeColor=none;fillColor=none;align=left;verticalAlign=top;spacingLeft=4;spacingRight=4;overflow=hidden;rotatable=0;points=[[0,0.5],[1,0.5]];portConstraint=eastwest;whiteSpace=wrap;html=1;fontFamily=Avenir;" vertex="1" parent="KbI-gIg1m7kFd8Ul9KuT-41">
          <mxGeometry y="60" width="160" height="26" as="geometry" />
        </mxCell>
        <mxCell id="KbI-gIg1m7kFd8Ul9KuT-120" style="edgeStyle=orthogonalEdgeStyle;rounded=0;orthogonalLoop=1;jettySize=auto;html=1;fontFamily=Avenir;" edge="1" parent="1" source="KbI-gIg1m7kFd8Ul9KuT-45" target="KbI-gIg1m7kFd8Ul9KuT-77">
          <mxGeometry relative="1" as="geometry" />
        </mxCell>
        <mxCell id="KbI-gIg1m7kFd8Ul9KuT-45" value="grammarParserVisitor" style="swimlane;fontStyle=1;align=center;verticalAlign=top;childLayout=stackLayout;horizontal=1;startSize=26;horizontalStack=0;resizeParent=1;resizeParentMax=0;resizeLast=0;collapsible=1;marginBottom=0;whiteSpace=wrap;html=1;fontFamily=Avenir;" vertex="1" parent="1">
          <mxGeometry x="80" y="2360" width="160" height="86" as="geometry" />
        </mxCell>
        <mxCell id="KbI-gIg1m7kFd8Ul9KuT-46" value="+ field: type" style="text;strokeColor=none;fillColor=none;align=left;verticalAlign=top;spacingLeft=4;spacingRight=4;overflow=hidden;rotatable=0;points=[[0,0.5],[1,0.5]];portConstraint=eastwest;whiteSpace=wrap;html=1;fontFamily=Avenir;" vertex="1" parent="KbI-gIg1m7kFd8Ul9KuT-45">
          <mxGeometry y="26" width="160" height="26" as="geometry" />
        </mxCell>
        <mxCell id="KbI-gIg1m7kFd8Ul9KuT-47" value="" style="line;strokeWidth=1;fillColor=none;align=left;verticalAlign=middle;spacingTop=-1;spacingLeft=3;spacingRight=3;rotatable=0;labelPosition=right;points=[];portConstraint=eastwest;strokeColor=inherit;fontFamily=Avenir;" vertex="1" parent="KbI-gIg1m7kFd8Ul9KuT-45">
          <mxGeometry y="52" width="160" height="8" as="geometry" />
        </mxCell>
        <mxCell id="KbI-gIg1m7kFd8Ul9KuT-48" value="+ method(type): type" style="text;strokeColor=none;fillColor=none;align=left;verticalAlign=top;spacingLeft=4;spacingRight=4;overflow=hidden;rotatable=0;points=[[0,0.5],[1,0.5]];portConstraint=eastwest;whiteSpace=wrap;html=1;fontFamily=Avenir;" vertex="1" parent="KbI-gIg1m7kFd8Ul9KuT-45">
          <mxGeometry y="60" width="160" height="26" as="geometry" />
        </mxCell>
        <mxCell id="KbI-gIg1m7kFd8Ul9KuT-49" value="DrawBoolean" style="swimlane;fontStyle=1;align=center;verticalAlign=top;childLayout=stackLayout;horizontal=1;startSize=26;horizontalStack=0;resizeParent=1;resizeParentMax=0;resizeLast=0;collapsible=1;marginBottom=0;whiteSpace=wrap;html=1;fontFamily=Avenir;" vertex="1" parent="1">
          <mxGeometry x="-960" y="2400" width="160" height="86" as="geometry" />
        </mxCell>
        <mxCell id="KbI-gIg1m7kFd8Ul9KuT-50" value="+ field: type" style="text;strokeColor=none;fillColor=none;align=left;verticalAlign=top;spacingLeft=4;spacingRight=4;overflow=hidden;rotatable=0;points=[[0,0.5],[1,0.5]];portConstraint=eastwest;whiteSpace=wrap;html=1;fontFamily=Avenir;" vertex="1" parent="KbI-gIg1m7kFd8Ul9KuT-49">
          <mxGeometry y="26" width="160" height="26" as="geometry" />
        </mxCell>
        <mxCell id="KbI-gIg1m7kFd8Ul9KuT-51" value="" style="line;strokeWidth=1;fillColor=none;align=left;verticalAlign=middle;spacingTop=-1;spacingLeft=3;spacingRight=3;rotatable=0;labelPosition=right;points=[];portConstraint=eastwest;strokeColor=inherit;fontFamily=Avenir;" vertex="1" parent="KbI-gIg1m7kFd8Ul9KuT-49">
          <mxGeometry y="52" width="160" height="8" as="geometry" />
        </mxCell>
        <mxCell id="KbI-gIg1m7kFd8Ul9KuT-52" value="+ method(type): type" style="text;strokeColor=none;fillColor=none;align=left;verticalAlign=top;spacingLeft=4;spacingRight=4;overflow=hidden;rotatable=0;points=[[0,0.5],[1,0.5]];portConstraint=eastwest;whiteSpace=wrap;html=1;fontFamily=Avenir;" vertex="1" parent="KbI-gIg1m7kFd8Ul9KuT-49">
          <mxGeometry y="60" width="160" height="26" as="geometry" />
        </mxCell>
        <mxCell id="KbI-gIg1m7kFd8Ul9KuT-53" value="DrawContract" style="swimlane;fontStyle=1;align=center;verticalAlign=top;childLayout=stackLayout;horizontal=1;startSize=26;horizontalStack=0;resizeParent=1;resizeParentMax=0;resizeLast=0;collapsible=1;marginBottom=0;whiteSpace=wrap;html=1;fontFamily=Avenir;" vertex="1" parent="1">
          <mxGeometry x="-760" y="2400" width="160" height="86" as="geometry" />
        </mxCell>
        <mxCell id="KbI-gIg1m7kFd8Ul9KuT-54" value="+ field: type" style="text;strokeColor=none;fillColor=none;align=left;verticalAlign=top;spacingLeft=4;spacingRight=4;overflow=hidden;rotatable=0;points=[[0,0.5],[1,0.5]];portConstraint=eastwest;whiteSpace=wrap;html=1;fontFamily=Avenir;" vertex="1" parent="KbI-gIg1m7kFd8Ul9KuT-53">
          <mxGeometry y="26" width="160" height="26" as="geometry" />
        </mxCell>
        <mxCell id="KbI-gIg1m7kFd8Ul9KuT-55" value="" style="line;strokeWidth=1;fillColor=none;align=left;verticalAlign=middle;spacingTop=-1;spacingLeft=3;spacingRight=3;rotatable=0;labelPosition=right;points=[];portConstraint=eastwest;strokeColor=inherit;fontFamily=Avenir;" vertex="1" parent="KbI-gIg1m7kFd8Ul9KuT-53">
          <mxGeometry y="52" width="160" height="8" as="geometry" />
        </mxCell>
        <mxCell id="KbI-gIg1m7kFd8Ul9KuT-56" value="+ method(type): type" style="text;strokeColor=none;fillColor=none;align=left;verticalAlign=top;spacingLeft=4;spacingRight=4;overflow=hidden;rotatable=0;points=[[0,0.5],[1,0.5]];portConstraint=eastwest;whiteSpace=wrap;html=1;fontFamily=Avenir;" vertex="1" parent="KbI-gIg1m7kFd8Ul9KuT-53">
          <mxGeometry y="60" width="160" height="26" as="geometry" />
        </mxCell>
        <mxCell id="KbI-gIg1m7kFd8Ul9KuT-57" value="DrawFile" style="swimlane;fontStyle=1;align=center;verticalAlign=top;childLayout=stackLayout;horizontal=1;startSize=26;horizontalStack=0;resizeParent=1;resizeParentMax=0;resizeLast=0;collapsible=1;marginBottom=0;whiteSpace=wrap;html=1;fontFamily=Avenir;" vertex="1" parent="1">
          <mxGeometry x="-960" y="2277" width="160" height="86" as="geometry" />
        </mxCell>
        <mxCell id="KbI-gIg1m7kFd8Ul9KuT-58" value="+ field: type" style="text;strokeColor=none;fillColor=none;align=left;verticalAlign=top;spacingLeft=4;spacingRight=4;overflow=hidden;rotatable=0;points=[[0,0.5],[1,0.5]];portConstraint=eastwest;whiteSpace=wrap;html=1;fontFamily=Avenir;" vertex="1" parent="KbI-gIg1m7kFd8Ul9KuT-57">
          <mxGeometry y="26" width="160" height="26" as="geometry" />
        </mxCell>
        <mxCell id="KbI-gIg1m7kFd8Ul9KuT-59" value="" style="line;strokeWidth=1;fillColor=none;align=left;verticalAlign=middle;spacingTop=-1;spacingLeft=3;spacingRight=3;rotatable=0;labelPosition=right;points=[];portConstraint=eastwest;strokeColor=inherit;fontFamily=Avenir;" vertex="1" parent="KbI-gIg1m7kFd8Ul9KuT-57">
          <mxGeometry y="52" width="160" height="8" as="geometry" />
        </mxCell>
        <mxCell id="KbI-gIg1m7kFd8Ul9KuT-60" value="+ method(type): type" style="text;strokeColor=none;fillColor=none;align=left;verticalAlign=top;spacingLeft=4;spacingRight=4;overflow=hidden;rotatable=0;points=[[0,0.5],[1,0.5]];portConstraint=eastwest;whiteSpace=wrap;html=1;fontFamily=Avenir;" vertex="1" parent="KbI-gIg1m7kFd8Ul9KuT-57">
          <mxGeometry y="60" width="160" height="26" as="geometry" />
        </mxCell>
        <mxCell id="KbI-gIg1m7kFd8Ul9KuT-61" value="DrawTree" style="swimlane;fontStyle=1;align=center;verticalAlign=top;childLayout=stackLayout;horizontal=1;startSize=26;horizontalStack=0;resizeParent=1;resizeParentMax=0;resizeLast=0;collapsible=1;marginBottom=0;whiteSpace=wrap;html=1;fontFamily=Avenir;" vertex="1" parent="1">
          <mxGeometry x="-760" y="2277" width="160" height="86" as="geometry" />
        </mxCell>
        <mxCell id="KbI-gIg1m7kFd8Ul9KuT-62" value="+ field: type" style="text;strokeColor=none;fillColor=none;align=left;verticalAlign=top;spacingLeft=4;spacingRight=4;overflow=hidden;rotatable=0;points=[[0,0.5],[1,0.5]];portConstraint=eastwest;whiteSpace=wrap;html=1;fontFamily=Avenir;" vertex="1" parent="KbI-gIg1m7kFd8Ul9KuT-61">
          <mxGeometry y="26" width="160" height="26" as="geometry" />
        </mxCell>
        <mxCell id="KbI-gIg1m7kFd8Ul9KuT-63" value="" style="line;strokeWidth=1;fillColor=none;align=left;verticalAlign=middle;spacingTop=-1;spacingLeft=3;spacingRight=3;rotatable=0;labelPosition=right;points=[];portConstraint=eastwest;strokeColor=inherit;fontFamily=Avenir;" vertex="1" parent="KbI-gIg1m7kFd8Ul9KuT-61">
          <mxGeometry y="52" width="160" height="8" as="geometry" />
        </mxCell>
        <mxCell id="KbI-gIg1m7kFd8Ul9KuT-64" value="+ method(type): type" style="text;strokeColor=none;fillColor=none;align=left;verticalAlign=top;spacingLeft=4;spacingRight=4;overflow=hidden;rotatable=0;points=[[0,0.5],[1,0.5]];portConstraint=eastwest;whiteSpace=wrap;html=1;fontFamily=Avenir;" vertex="1" parent="KbI-gIg1m7kFd8Ul9KuT-61">
          <mxGeometry y="60" width="160" height="26" as="geometry" />
        </mxCell>
        <mxCell id="KbI-gIg1m7kFd8Ul9KuT-123" style="edgeStyle=orthogonalEdgeStyle;rounded=0;orthogonalLoop=1;jettySize=auto;html=1;fontFamily=Avenir;" edge="1" parent="1" source="KbI-gIg1m7kFd8Ul9KuT-65" target="KbI-gIg1m7kFd8Ul9KuT-21">
          <mxGeometry relative="1" as="geometry" />
        </mxCell>
        <mxCell id="KbI-gIg1m7kFd8Ul9KuT-124" style="edgeStyle=orthogonalEdgeStyle;rounded=0;orthogonalLoop=1;jettySize=auto;html=1;fontFamily=Avenir;" edge="1" parent="1" source="KbI-gIg1m7kFd8Ul9KuT-65" target="KbI-gIg1m7kFd8Ul9KuT-41">
          <mxGeometry relative="1" as="geometry" />
        </mxCell>
        <mxCell id="KbI-gIg1m7kFd8Ul9KuT-125" style="edgeStyle=orthogonalEdgeStyle;rounded=0;orthogonalLoop=1;jettySize=auto;html=1;fontFamily=Avenir;" edge="1" parent="1" source="KbI-gIg1m7kFd8Ul9KuT-65" target="KbI-gIg1m7kFd8Ul9KuT-37">
          <mxGeometry relative="1" as="geometry">
            <Array as="points">
              <mxPoint x="-530" y="2563" />
              <mxPoint x="-530" y="2723" />
            </Array>
          </mxGeometry>
        </mxCell>
        <mxCell id="KbI-gIg1m7kFd8Ul9KuT-126" style="edgeStyle=orthogonalEdgeStyle;rounded=0;orthogonalLoop=1;jettySize=auto;html=1;fontFamily=Avenir;" edge="1" parent="1" source="KbI-gIg1m7kFd8Ul9KuT-65" target="KbI-gIg1m7kFd8Ul9KuT-33">
          <mxGeometry relative="1" as="geometry" />
        </mxCell>
        <mxCell id="KbI-gIg1m7kFd8Ul9KuT-65" value="Flask" style="swimlane;fontStyle=1;align=center;verticalAlign=top;childLayout=stackLayout;horizontal=1;startSize=26;horizontalStack=0;resizeParent=1;resizeParentMax=0;resizeLast=0;collapsible=1;marginBottom=0;whiteSpace=wrap;html=1;fontFamily=Avenir;" vertex="1" parent="1">
          <mxGeometry x="-480" y="2520" width="160" height="86" as="geometry" />
        </mxCell>
        <mxCell id="KbI-gIg1m7kFd8Ul9KuT-66" value="+ field: type" style="text;strokeColor=none;fillColor=none;align=left;verticalAlign=top;spacingLeft=4;spacingRight=4;overflow=hidden;rotatable=0;points=[[0,0.5],[1,0.5]];portConstraint=eastwest;whiteSpace=wrap;html=1;fontFamily=Avenir;" vertex="1" parent="KbI-gIg1m7kFd8Ul9KuT-65">
          <mxGeometry y="26" width="160" height="26" as="geometry" />
        </mxCell>
        <mxCell id="KbI-gIg1m7kFd8Ul9KuT-67" value="" style="line;strokeWidth=1;fillColor=none;align=left;verticalAlign=middle;spacingTop=-1;spacingLeft=3;spacingRight=3;rotatable=0;labelPosition=right;points=[];portConstraint=eastwest;strokeColor=inherit;fontFamily=Avenir;" vertex="1" parent="KbI-gIg1m7kFd8Ul9KuT-65">
          <mxGeometry y="52" width="160" height="8" as="geometry" />
        </mxCell>
        <mxCell id="KbI-gIg1m7kFd8Ul9KuT-68" value="+ method(type): type" style="text;strokeColor=none;fillColor=none;align=left;verticalAlign=top;spacingLeft=4;spacingRight=4;overflow=hidden;rotatable=0;points=[[0,0.5],[1,0.5]];portConstraint=eastwest;whiteSpace=wrap;html=1;fontFamily=Avenir;" vertex="1" parent="KbI-gIg1m7kFd8Ul9KuT-65">
          <mxGeometry y="60" width="160" height="26" as="geometry" />
        </mxCell>
        <mxCell id="KbI-gIg1m7kFd8Ul9KuT-73" value="grammarParserLexer" style="swimlane;fontStyle=1;align=center;verticalAlign=top;childLayout=stackLayout;horizontal=1;startSize=26;horizontalStack=0;resizeParent=1;resizeParentMax=0;resizeLast=0;collapsible=1;marginBottom=0;whiteSpace=wrap;html=1;fontFamily=Avenir;" vertex="1" parent="1">
          <mxGeometry x="320" y="2200" width="160" height="86" as="geometry" />
        </mxCell>
        <mxCell id="KbI-gIg1m7kFd8Ul9KuT-74" value="+ field: type" style="text;strokeColor=none;fillColor=none;align=left;verticalAlign=top;spacingLeft=4;spacingRight=4;overflow=hidden;rotatable=0;points=[[0,0.5],[1,0.5]];portConstraint=eastwest;whiteSpace=wrap;html=1;fontFamily=Avenir;" vertex="1" parent="KbI-gIg1m7kFd8Ul9KuT-73">
          <mxGeometry y="26" width="160" height="26" as="geometry" />
        </mxCell>
        <mxCell id="KbI-gIg1m7kFd8Ul9KuT-75" value="" style="line;strokeWidth=1;fillColor=none;align=left;verticalAlign=middle;spacingTop=-1;spacingLeft=3;spacingRight=3;rotatable=0;labelPosition=right;points=[];portConstraint=eastwest;strokeColor=inherit;fontFamily=Avenir;" vertex="1" parent="KbI-gIg1m7kFd8Ul9KuT-73">
          <mxGeometry y="52" width="160" height="8" as="geometry" />
        </mxCell>
        <mxCell id="KbI-gIg1m7kFd8Ul9KuT-76" value="+ method(type): type" style="text;strokeColor=none;fillColor=none;align=left;verticalAlign=top;spacingLeft=4;spacingRight=4;overflow=hidden;rotatable=0;points=[[0,0.5],[1,0.5]];portConstraint=eastwest;whiteSpace=wrap;html=1;fontFamily=Avenir;" vertex="1" parent="KbI-gIg1m7kFd8Ul9KuT-73">
          <mxGeometry y="60" width="160" height="26" as="geometry" />
        </mxCell>
        <mxCell id="KbI-gIg1m7kFd8Ul9KuT-77" value="grammarParserParser" style="swimlane;fontStyle=1;align=center;verticalAlign=top;childLayout=stackLayout;horizontal=1;startSize=26;horizontalStack=0;resizeParent=1;resizeParentMax=0;resizeLast=0;collapsible=1;marginBottom=0;whiteSpace=wrap;html=1;fontFamily=Avenir;" vertex="1" parent="1">
          <mxGeometry x="320" y="2360" width="160" height="86" as="geometry" />
        </mxCell>
        <mxCell id="KbI-gIg1m7kFd8Ul9KuT-78" value="+ field: type" style="text;strokeColor=none;fillColor=none;align=left;verticalAlign=top;spacingLeft=4;spacingRight=4;overflow=hidden;rotatable=0;points=[[0,0.5],[1,0.5]];portConstraint=eastwest;whiteSpace=wrap;html=1;fontFamily=Avenir;" vertex="1" parent="KbI-gIg1m7kFd8Ul9KuT-77">
          <mxGeometry y="26" width="160" height="26" as="geometry" />
        </mxCell>
        <mxCell id="KbI-gIg1m7kFd8Ul9KuT-79" value="" style="line;strokeWidth=1;fillColor=none;align=left;verticalAlign=middle;spacingTop=-1;spacingLeft=3;spacingRight=3;rotatable=0;labelPosition=right;points=[];portConstraint=eastwest;strokeColor=inherit;fontFamily=Avenir;" vertex="1" parent="KbI-gIg1m7kFd8Ul9KuT-77">
          <mxGeometry y="52" width="160" height="8" as="geometry" />
        </mxCell>
        <mxCell id="KbI-gIg1m7kFd8Ul9KuT-80" value="+ method(type): type" style="text;strokeColor=none;fillColor=none;align=left;verticalAlign=top;spacingLeft=4;spacingRight=4;overflow=hidden;rotatable=0;points=[[0,0.5],[1,0.5]];portConstraint=eastwest;whiteSpace=wrap;html=1;fontFamily=Avenir;" vertex="1" parent="KbI-gIg1m7kFd8Ul9KuT-77">
          <mxGeometry y="60" width="160" height="26" as="geometry" />
        </mxCell>
        <mxCell id="KbI-gIg1m7kFd8Ul9KuT-89" value="TreeSitter" style="swimlane;fontStyle=1;align=center;verticalAlign=top;childLayout=stackLayout;horizontal=1;startSize=26;horizontalStack=0;resizeParent=1;resizeParentMax=0;resizeLast=0;collapsible=1;marginBottom=0;whiteSpace=wrap;html=1;fontFamily=Avenir;" vertex="1" parent="1">
          <mxGeometry x="-200" y="2360" width="160" height="86" as="geometry" />
        </mxCell>
        <mxCell id="KbI-gIg1m7kFd8Ul9KuT-90" value="+ field: type" style="text;strokeColor=none;fillColor=none;align=left;verticalAlign=top;spacingLeft=4;spacingRight=4;overflow=hidden;rotatable=0;points=[[0,0.5],[1,0.5]];portConstraint=eastwest;whiteSpace=wrap;html=1;fontFamily=Avenir;" vertex="1" parent="KbI-gIg1m7kFd8Ul9KuT-89">
          <mxGeometry y="26" width="160" height="26" as="geometry" />
        </mxCell>
        <mxCell id="KbI-gIg1m7kFd8Ul9KuT-91" value="" style="line;strokeWidth=1;fillColor=none;align=left;verticalAlign=middle;spacingTop=-1;spacingLeft=3;spacingRight=3;rotatable=0;labelPosition=right;points=[];portConstraint=eastwest;strokeColor=inherit;fontFamily=Avenir;" vertex="1" parent="KbI-gIg1m7kFd8Ul9KuT-89">
          <mxGeometry y="52" width="160" height="8" as="geometry" />
        </mxCell>
        <mxCell id="KbI-gIg1m7kFd8Ul9KuT-92" value="+ method(type): type" style="text;strokeColor=none;fillColor=none;align=left;verticalAlign=top;spacingLeft=4;spacingRight=4;overflow=hidden;rotatable=0;points=[[0,0.5],[1,0.5]];portConstraint=eastwest;whiteSpace=wrap;html=1;fontFamily=Avenir;" vertex="1" parent="KbI-gIg1m7kFd8Ul9KuT-89">
          <mxGeometry y="60" width="160" height="26" as="geometry" />
        </mxCell>
        <mxCell id="KbI-gIg1m7kFd8Ul9KuT-114" style="edgeStyle=orthogonalEdgeStyle;rounded=0;orthogonalLoop=1;jettySize=auto;html=1;fontFamily=Avenir;" edge="1" parent="1" source="KbI-gIg1m7kFd8Ul9KuT-25" target="KbI-gIg1m7kFd8Ul9KuT-17">
          <mxGeometry relative="1" as="geometry" />
        </mxCell>
        <mxCell id="KbI-gIg1m7kFd8Ul9KuT-25" value="BNFParser" style="swimlane;fontStyle=1;align=center;verticalAlign=top;childLayout=stackLayout;horizontal=1;startSize=26;horizontalStack=0;resizeParent=1;resizeParentMax=0;resizeLast=0;collapsible=1;marginBottom=0;whiteSpace=wrap;html=1;fontFamily=Avenir;" vertex="1" parent="1">
          <mxGeometry x="80" y="2520" width="160" height="86" as="geometry" />
        </mxCell>
        <mxCell id="KbI-gIg1m7kFd8Ul9KuT-26" value="+ field: type" style="text;strokeColor=none;fillColor=none;align=left;verticalAlign=top;spacingLeft=4;spacingRight=4;overflow=hidden;rotatable=0;points=[[0,0.5],[1,0.5]];portConstraint=eastwest;whiteSpace=wrap;html=1;fontFamily=Avenir;" vertex="1" parent="KbI-gIg1m7kFd8Ul9KuT-25">
          <mxGeometry y="26" width="160" height="26" as="geometry" />
        </mxCell>
        <mxCell id="KbI-gIg1m7kFd8Ul9KuT-27" value="" style="line;strokeWidth=1;fillColor=none;align=left;verticalAlign=middle;spacingTop=-1;spacingLeft=3;spacingRight=3;rotatable=0;labelPosition=right;points=[];portConstraint=eastwest;strokeColor=inherit;fontFamily=Avenir;" vertex="1" parent="KbI-gIg1m7kFd8Ul9KuT-25">
          <mxGeometry y="52" width="160" height="8" as="geometry" />
        </mxCell>
        <mxCell id="KbI-gIg1m7kFd8Ul9KuT-28" value="+ method(type): type" style="text;strokeColor=none;fillColor=none;align=left;verticalAlign=top;spacingLeft=4;spacingRight=4;overflow=hidden;rotatable=0;points=[[0,0.5],[1,0.5]];portConstraint=eastwest;whiteSpace=wrap;html=1;fontFamily=Avenir;" vertex="1" parent="KbI-gIg1m7kFd8Ul9KuT-25">
          <mxGeometry y="60" width="160" height="26" as="geometry" />
        </mxCell>
        <mxCell id="KbI-gIg1m7kFd8Ul9KuT-102" value="ANTLR" style="text;html=1;align=center;verticalAlign=middle;whiteSpace=wrap;rounded=0;fontFamily=Avenir;fontStyle=1" vertex="1" parent="1">
          <mxGeometry x="295" y="2160" width="65" height="34" as="geometry" />
        </mxCell>
        <mxCell id="KbI-gIg1m7kFd8Ul9KuT-104" value="Tree-Sitter" style="text;html=1;align=center;verticalAlign=middle;whiteSpace=wrap;rounded=0;fontFamily=Avenir;fontStyle=1" vertex="1" parent="1">
          <mxGeometry x="-220" y="2319" width="80" height="34" as="geometry" />
        </mxCell>
        <mxCell id="KbI-gIg1m7kFd8Ul9KuT-110" style="edgeStyle=orthogonalEdgeStyle;rounded=0;orthogonalLoop=1;jettySize=auto;html=1;fontFamily=Avenir;" edge="1" parent="1" source="KbI-gIg1m7kFd8Ul9KuT-25" target="KbI-gIg1m7kFd8Ul9KuT-45">
          <mxGeometry relative="1" as="geometry" />
        </mxCell>
        <mxCell id="KbI-gIg1m7kFd8Ul9KuT-112" style="edgeStyle=orthogonalEdgeStyle;rounded=0;orthogonalLoop=1;jettySize=auto;html=1;fontFamily=Avenir;" edge="1" parent="1" source="KbI-gIg1m7kFd8Ul9KuT-77" target="KbI-gIg1m7kFd8Ul9KuT-73">
          <mxGeometry relative="1" as="geometry">
            <Array as="points" />
          </mxGeometry>
        </mxCell>
        <mxCell id="KbI-gIg1m7kFd8Ul9KuT-113" style="edgeStyle=orthogonalEdgeStyle;rounded=0;orthogonalLoop=1;jettySize=auto;html=1;fontFamily=Avenir;" edge="1" parent="1" source="KbI-gIg1m7kFd8Ul9KuT-45" target="KbI-gIg1m7kFd8Ul9KuT-13">
          <mxGeometry relative="1" as="geometry" />
        </mxCell>
        <mxCell id="KbI-gIg1m7kFd8Ul9KuT-131" value="ConditionSim" style="swimlane;fontStyle=1;align=center;verticalAlign=top;childLayout=stackLayout;horizontal=1;startSize=26;horizontalStack=0;resizeParent=1;resizeParentMax=0;resizeLast=0;collapsible=1;marginBottom=0;whiteSpace=wrap;html=1;fontFamily=Avenir;" vertex="1" parent="1">
          <mxGeometry x="-480" y="2800" width="160" height="86" as="geometry" />
        </mxCell>
        <mxCell id="KbI-gIg1m7kFd8Ul9KuT-132" value="+ field: type" style="text;strokeColor=none;fillColor=none;align=left;verticalAlign=top;spacingLeft=4;spacingRight=4;overflow=hidden;rotatable=0;points=[[0,0.5],[1,0.5]];portConstraint=eastwest;whiteSpace=wrap;html=1;fontFamily=Avenir;" vertex="1" parent="KbI-gIg1m7kFd8Ul9KuT-131">
          <mxGeometry y="26" width="160" height="26" as="geometry" />
        </mxCell>
        <mxCell id="KbI-gIg1m7kFd8Ul9KuT-133" value="" style="line;strokeWidth=1;fillColor=none;align=left;verticalAlign=middle;spacingTop=-1;spacingLeft=3;spacingRight=3;rotatable=0;labelPosition=right;points=[];portConstraint=eastwest;strokeColor=inherit;fontFamily=Avenir;" vertex="1" parent="KbI-gIg1m7kFd8Ul9KuT-131">
          <mxGeometry y="52" width="160" height="8" as="geometry" />
        </mxCell>
        <mxCell id="KbI-gIg1m7kFd8Ul9KuT-134" value="+ method(type): type" style="text;strokeColor=none;fillColor=none;align=left;verticalAlign=top;spacingLeft=4;spacingRight=4;overflow=hidden;rotatable=0;points=[[0,0.5],[1,0.5]];portConstraint=eastwest;whiteSpace=wrap;html=1;fontFamily=Avenir;" vertex="1" parent="KbI-gIg1m7kFd8Ul9KuT-131">
          <mxGeometry y="60" width="160" height="26" as="geometry" />
        </mxCell>
        <mxCell id="KbI-gIg1m7kFd8Ul9KuT-137" value="TimeOverride" style="swimlane;fontStyle=1;align=center;verticalAlign=top;childLayout=stackLayout;horizontal=1;startSize=26;horizontalStack=0;resizeParent=1;resizeParentMax=0;resizeLast=0;collapsible=1;marginBottom=0;whiteSpace=wrap;html=1;fontFamily=Avenir;" vertex="1" parent="1">
          <mxGeometry x="-960" y="2680" width="160" height="86" as="geometry" />
        </mxCell>
        <mxCell id="KbI-gIg1m7kFd8Ul9KuT-138" value="+ field: type" style="text;strokeColor=none;fillColor=none;align=left;verticalAlign=top;spacingLeft=4;spacingRight=4;overflow=hidden;rotatable=0;points=[[0,0.5],[1,0.5]];portConstraint=eastwest;whiteSpace=wrap;html=1;fontFamily=Avenir;" vertex="1" parent="KbI-gIg1m7kFd8Ul9KuT-137">
          <mxGeometry y="26" width="160" height="26" as="geometry" />
        </mxCell>
        <mxCell id="KbI-gIg1m7kFd8Ul9KuT-139" value="" style="line;strokeWidth=1;fillColor=none;align=left;verticalAlign=middle;spacingTop=-1;spacingLeft=3;spacingRight=3;rotatable=0;labelPosition=right;points=[];portConstraint=eastwest;strokeColor=inherit;fontFamily=Avenir;" vertex="1" parent="KbI-gIg1m7kFd8Ul9KuT-137">
          <mxGeometry y="52" width="160" height="8" as="geometry" />
        </mxCell>
        <mxCell id="KbI-gIg1m7kFd8Ul9KuT-140" value="+ method(type): type" style="text;strokeColor=none;fillColor=none;align=left;verticalAlign=top;spacingLeft=4;spacingRight=4;overflow=hidden;rotatable=0;points=[[0,0.5],[1,0.5]];portConstraint=eastwest;whiteSpace=wrap;html=1;fontFamily=Avenir;" vertex="1" parent="KbI-gIg1m7kFd8Ul9KuT-137">
          <mxGeometry y="60" width="160" height="26" as="geometry" />
        </mxCell>
        <mxCell id="KbI-gIg1m7kFd8Ul9KuT-143" value="" style="rounded=0;whiteSpace=wrap;html=1;fontFamily=Avenir;" vertex="1" parent="1">
          <mxGeometry x="1660" y="2400" width="200" height="80" as="geometry" />
        </mxCell>
        <mxCell id="KbI-gIg1m7kFd8Ul9KuT-144" value="" style="rounded=0;whiteSpace=wrap;html=1;fontFamily=Avenir;" vertex="1" parent="1">
          <mxGeometry x="2120" y="2280" width="210" height="200" as="geometry" />
        </mxCell>
        <mxCell id="KbI-gIg1m7kFd8Ul9KuT-145" value="Component" style="swimlane;fontStyle=1;align=center;verticalAlign=top;childLayout=stackLayout;horizontal=1;startSize=26;horizontalStack=0;resizeParent=1;resizeParentMax=0;resizeLast=0;collapsible=1;marginBottom=0;whiteSpace=wrap;html=1;fontFamily=Avenir;fillColor=#67AB9F;" vertex="1" parent="1">
          <mxGeometry x="1920" y="2363" width="160" height="34" as="geometry" />
        </mxCell>
        <mxCell id="KbI-gIg1m7kFd8Ul9KuT-147" value="" style="line;strokeWidth=1;fillColor=none;align=left;verticalAlign=middle;spacingTop=-1;spacingLeft=3;spacingRight=3;rotatable=0;labelPosition=right;points=[];portConstraint=eastwest;strokeColor=inherit;fontFamily=Avenir;" vertex="1" parent="KbI-gIg1m7kFd8Ul9KuT-145">
          <mxGeometry y="26" width="160" height="8" as="geometry" />
        </mxCell>
        <mxCell id="KbI-gIg1m7kFd8Ul9KuT-149" value="MetaData" style="swimlane;fontStyle=1;align=center;verticalAlign=top;childLayout=stackLayout;horizontal=1;startSize=26;horizontalStack=0;resizeParent=1;resizeParentMax=0;resizeLast=0;collapsible=1;marginBottom=0;whiteSpace=wrap;html=1;fontFamily=Avenir;fillColor=#FFD966;" vertex="1" parent="1">
          <mxGeometry x="1840" y="2600" width="160" height="34" as="geometry" />
        </mxCell>
        <mxCell id="KbI-gIg1m7kFd8Ul9KuT-151" value="" style="line;strokeWidth=1;fillColor=none;align=left;verticalAlign=middle;spacingTop=-1;spacingLeft=3;spacingRight=3;rotatable=0;labelPosition=right;points=[];portConstraint=eastwest;strokeColor=inherit;fontFamily=Avenir;" vertex="1" parent="KbI-gIg1m7kFd8Ul9KuT-149">
          <mxGeometry y="26" width="160" height="8" as="geometry" />
        </mxCell>
        <mxCell id="KbI-gIg1m7kFd8Ul9KuT-153" style="edgeStyle=orthogonalEdgeStyle;rounded=0;orthogonalLoop=1;jettySize=auto;html=1;fontFamily=Avenir;" edge="1" parent="1" source="KbI-gIg1m7kFd8Ul9KuT-156" target="KbI-gIg1m7kFd8Ul9KuT-143">
          <mxGeometry relative="1" as="geometry" />
        </mxCell>
        <mxCell id="KbI-gIg1m7kFd8Ul9KuT-155" style="edgeStyle=orthogonalEdgeStyle;rounded=0;orthogonalLoop=1;jettySize=auto;html=1;fontFamily=Avenir;" edge="1" parent="1" source="KbI-gIg1m7kFd8Ul9KuT-156" target="KbI-gIg1m7kFd8Ul9KuT-220">
          <mxGeometry relative="1" as="geometry" />
        </mxCell>
        <mxCell id="KbI-gIg1m7kFd8Ul9KuT-237" style="edgeStyle=orthogonalEdgeStyle;rounded=0;orthogonalLoop=1;jettySize=auto;html=1;entryX=0.5;entryY=0;entryDx=0;entryDy=0;fontFamily=Avenir;" edge="1" parent="1" source="KbI-gIg1m7kFd8Ul9KuT-156" target="KbI-gIg1m7kFd8Ul9KuT-149">
          <mxGeometry relative="1" as="geometry" />
        </mxCell>
        <mxCell id="KbI-gIg1m7kFd8Ul9KuT-156" value="Handler" style="swimlane;fontStyle=1;align=center;verticalAlign=top;childLayout=stackLayout;horizontal=1;startSize=26;horizontalStack=0;resizeParent=1;resizeParentMax=0;resizeLast=0;collapsible=1;marginBottom=0;whiteSpace=wrap;html=1;fontFamily=Avenir;fillColor=#FFD966;" vertex="1" parent="1">
          <mxGeometry x="1680" y="2520" width="160" height="34" as="geometry" />
        </mxCell>
        <mxCell id="KbI-gIg1m7kFd8Ul9KuT-158" value="" style="line;strokeWidth=1;fillColor=none;align=left;verticalAlign=middle;spacingTop=-1;spacingLeft=3;spacingRight=3;rotatable=0;labelPosition=right;points=[];portConstraint=eastwest;strokeColor=inherit;fontFamily=Avenir;" vertex="1" parent="KbI-gIg1m7kFd8Ul9KuT-156">
          <mxGeometry y="26" width="160" height="8" as="geometry" />
        </mxCell>
        <mxCell id="KbI-gIg1m7kFd8Ul9KuT-160" style="edgeStyle=orthogonalEdgeStyle;rounded=0;orthogonalLoop=1;jettySize=auto;html=1;exitX=0;exitY=0.5;exitDx=0;exitDy=0;entryX=0.5;entryY=1;entryDx=0;entryDy=0;fontFamily=Avenir;" edge="1" parent="1" source="KbI-gIg1m7kFd8Ul9KuT-164" target="KbI-gIg1m7kFd8Ul9KuT-187">
          <mxGeometry relative="1" as="geometry">
            <Array as="points">
              <mxPoint x="1260" y="2537" />
              <mxPoint x="1260" y="2480" />
              <mxPoint x="1360" y="2480" />
            </Array>
          </mxGeometry>
        </mxCell>
        <mxCell id="KbI-gIg1m7kFd8Ul9KuT-161" style="edgeStyle=orthogonalEdgeStyle;rounded=0;orthogonalLoop=1;jettySize=auto;html=1;fontFamily=Avenir;" edge="1" parent="1" source="KbI-gIg1m7kFd8Ul9KuT-164" target="KbI-gIg1m7kFd8Ul9KuT-183">
          <mxGeometry relative="1" as="geometry">
            <Array as="points">
              <mxPoint x="1260" y="2537" />
              <mxPoint x="1260" y="2480" />
              <mxPoint x="1160" y="2480" />
            </Array>
          </mxGeometry>
        </mxCell>
        <mxCell id="KbI-gIg1m7kFd8Ul9KuT-162" style="edgeStyle=orthogonalEdgeStyle;rounded=0;orthogonalLoop=1;jettySize=auto;html=1;exitX=0;exitY=0.5;exitDx=0;exitDy=0;fontFamily=Avenir;" edge="1" parent="1" source="KbI-gIg1m7kFd8Ul9KuT-164" target="KbI-gIg1m7kFd8Ul9KuT-195">
          <mxGeometry relative="1" as="geometry">
            <Array as="points">
              <mxPoint x="1260" y="2537" />
              <mxPoint x="1260" y="2320" />
              <mxPoint x="1360" y="2320" />
            </Array>
          </mxGeometry>
        </mxCell>
        <mxCell id="KbI-gIg1m7kFd8Ul9KuT-163" style="edgeStyle=orthogonalEdgeStyle;rounded=0;orthogonalLoop=1;jettySize=auto;html=1;fontFamily=Avenir;" edge="1" parent="1" target="KbI-gIg1m7kFd8Ul9KuT-191">
          <mxGeometry relative="1" as="geometry">
            <Array as="points">
              <mxPoint x="1260" y="2537" />
              <mxPoint x="1260" y="2320" />
              <mxPoint x="1160" y="2320" />
            </Array>
            <mxPoint x="1280" y="2537" as="sourcePoint" />
          </mxGeometry>
        </mxCell>
        <mxCell id="KbI-gIg1m7kFd8Ul9KuT-164" value="Visualiser" style="swimlane;fontStyle=1;align=center;verticalAlign=top;childLayout=stackLayout;horizontal=1;startSize=26;horizontalStack=0;resizeParent=1;resizeParentMax=0;resizeLast=0;collapsible=1;marginBottom=0;whiteSpace=wrap;html=1;fontFamily=Avenir;fillColor=#EA6B66;" vertex="1" parent="1">
          <mxGeometry x="1280" y="2520" width="160" height="34" as="geometry" />
        </mxCell>
        <mxCell id="KbI-gIg1m7kFd8Ul9KuT-166" value="" style="line;strokeWidth=1;fillColor=none;align=left;verticalAlign=middle;spacingTop=-1;spacingLeft=3;spacingRight=3;rotatable=0;labelPosition=right;points=[];portConstraint=eastwest;strokeColor=inherit;fontFamily=Avenir;" vertex="1" parent="KbI-gIg1m7kFd8Ul9KuT-164">
          <mxGeometry y="26" width="160" height="8" as="geometry" />
        </mxCell>
        <mxCell id="KbI-gIg1m7kFd8Ul9KuT-168" style="edgeStyle=orthogonalEdgeStyle;rounded=0;orthogonalLoop=1;jettySize=auto;html=1;fontFamily=Avenir;" edge="1" parent="1" source="KbI-gIg1m7kFd8Ul9KuT-169" target="KbI-gIg1m7kFd8Ul9KuT-233">
          <mxGeometry relative="1" as="geometry" />
        </mxCell>
        <mxCell id="KbI-gIg1m7kFd8Ul9KuT-169" value="InteractiveAnalysis" style="swimlane;fontStyle=1;align=center;verticalAlign=top;childLayout=stackLayout;horizontal=1;startSize=26;horizontalStack=0;resizeParent=1;resizeParentMax=0;resizeLast=0;collapsible=1;marginBottom=0;whiteSpace=wrap;html=1;fontFamily=Avenir;fillColor=#B5739D;" vertex="1" parent="1">
          <mxGeometry x="1281" y="2600" width="160" height="34" as="geometry" />
        </mxCell>
        <mxCell id="KbI-gIg1m7kFd8Ul9KuT-171" value="" style="line;strokeWidth=1;fillColor=none;align=left;verticalAlign=middle;spacingTop=-1;spacingLeft=3;spacingRight=3;rotatable=0;labelPosition=right;points=[];portConstraint=eastwest;strokeColor=inherit;fontFamily=Avenir;" vertex="1" parent="KbI-gIg1m7kFd8Ul9KuT-169">
          <mxGeometry y="26" width="160" height="8" as="geometry" />
        </mxCell>
        <mxCell id="KbI-gIg1m7kFd8Ul9KuT-173" style="edgeStyle=orthogonalEdgeStyle;rounded=0;orthogonalLoop=1;jettySize=auto;html=1;entryX=0.5;entryY=0;entryDx=0;entryDy=0;fontFamily=Avenir;" edge="1" parent="1" source="KbI-gIg1m7kFd8Ul9KuT-174" target="KbI-gIg1m7kFd8Ul9KuT-229">
          <mxGeometry relative="1" as="geometry" />
        </mxCell>
        <mxCell id="KbI-gIg1m7kFd8Ul9KuT-174" value="StaticAnalysis" style="swimlane;fontStyle=1;align=center;verticalAlign=top;childLayout=stackLayout;horizontal=1;startSize=26;horizontalStack=0;resizeParent=1;resizeParentMax=0;resizeLast=0;collapsible=1;marginBottom=0;whiteSpace=wrap;html=1;fontFamily=Avenir;fillColor=#B5739D;" vertex="1" parent="1">
          <mxGeometry x="1480" y="2646" width="160" height="34" as="geometry" />
        </mxCell>
        <mxCell id="KbI-gIg1m7kFd8Ul9KuT-176" value="" style="line;strokeWidth=1;fillColor=#B5739D;align=left;verticalAlign=middle;spacingTop=-1;spacingLeft=3;spacingRight=3;rotatable=0;labelPosition=right;points=[];portConstraint=eastwest;strokeColor=inherit;fontFamily=Avenir;" vertex="1" parent="KbI-gIg1m7kFd8Ul9KuT-174">
          <mxGeometry y="26" width="160" height="8" as="geometry" />
        </mxCell>
        <mxCell id="KbI-gIg1m7kFd8Ul9KuT-178" style="edgeStyle=orthogonalEdgeStyle;rounded=0;orthogonalLoop=1;jettySize=auto;html=1;fontFamily=Avenir;" edge="1" parent="1" source="KbI-gIg1m7kFd8Ul9KuT-179" target="KbI-gIg1m7kFd8Ul9KuT-211">
          <mxGeometry relative="1" as="geometry" />
        </mxCell>
        <mxCell id="KbI-gIg1m7kFd8Ul9KuT-179" value="grammarParserVisitor" style="swimlane;fontStyle=1;align=center;verticalAlign=top;childLayout=stackLayout;horizontal=1;startSize=26;horizontalStack=0;resizeParent=1;resizeParentMax=0;resizeLast=0;collapsible=1;marginBottom=0;whiteSpace=wrap;html=1;fontFamily=Avenir;fillColor=#67AB9F;" vertex="1" parent="1">
          <mxGeometry x="1920" y="2446" width="160" height="34" as="geometry" />
        </mxCell>
        <mxCell id="KbI-gIg1m7kFd8Ul9KuT-181" value="" style="line;strokeWidth=1;fillColor=none;align=left;verticalAlign=middle;spacingTop=-1;spacingLeft=3;spacingRight=3;rotatable=0;labelPosition=right;points=[];portConstraint=eastwest;strokeColor=inherit;fontFamily=Avenir;" vertex="1" parent="KbI-gIg1m7kFd8Ul9KuT-179">
          <mxGeometry y="26" width="160" height="8" as="geometry" />
        </mxCell>
        <mxCell id="KbI-gIg1m7kFd8Ul9KuT-183" value="DrawBoolean" style="swimlane;fontStyle=1;align=center;verticalAlign=top;childLayout=stackLayout;horizontal=1;startSize=26;horizontalStack=0;resizeParent=1;resizeParentMax=0;resizeLast=0;collapsible=1;marginBottom=0;whiteSpace=wrap;html=1;fillColor=#EA6B66;fontFamily=Avenir;" vertex="1" parent="1">
          <mxGeometry x="1080" y="2400" width="160" height="34" as="geometry" />
        </mxCell>
        <mxCell id="KbI-gIg1m7kFd8Ul9KuT-185" value="" style="line;strokeWidth=1;fillColor=none;align=left;verticalAlign=middle;spacingTop=-1;spacingLeft=3;spacingRight=3;rotatable=0;labelPosition=right;points=[];portConstraint=eastwest;strokeColor=inherit;fontFamily=Avenir;" vertex="1" parent="KbI-gIg1m7kFd8Ul9KuT-183">
          <mxGeometry y="26" width="160" height="8" as="geometry" />
        </mxCell>
        <mxCell id="KbI-gIg1m7kFd8Ul9KuT-187" value="DrawContract" style="swimlane;fontStyle=1;align=center;verticalAlign=top;childLayout=stackLayout;horizontal=1;startSize=26;horizontalStack=0;resizeParent=1;resizeParentMax=0;resizeLast=0;collapsible=1;marginBottom=0;whiteSpace=wrap;html=1;fillColor=#EA6B66;fontFamily=Avenir;" vertex="1" parent="1">
          <mxGeometry x="1280" y="2400" width="160" height="34" as="geometry" />
        </mxCell>
        <mxCell id="KbI-gIg1m7kFd8Ul9KuT-189" value="" style="line;strokeWidth=1;fillColor=none;align=left;verticalAlign=middle;spacingTop=-1;spacingLeft=3;spacingRight=3;rotatable=0;labelPosition=right;points=[];portConstraint=eastwest;strokeColor=inherit;fontFamily=Avenir;" vertex="1" parent="KbI-gIg1m7kFd8Ul9KuT-187">
          <mxGeometry y="26" width="160" height="8" as="geometry" />
        </mxCell>
        <mxCell id="KbI-gIg1m7kFd8Ul9KuT-191" value="DrawFile" style="swimlane;fontStyle=1;align=center;verticalAlign=top;childLayout=stackLayout;horizontal=1;startSize=26;horizontalStack=0;resizeParent=1;resizeParentMax=0;resizeLast=0;collapsible=1;marginBottom=0;whiteSpace=wrap;html=1;fillColor=#EA6B66;fontFamily=Avenir;" vertex="1" parent="1">
          <mxGeometry x="1080" y="2277" width="160" height="34" as="geometry" />
        </mxCell>
        <mxCell id="KbI-gIg1m7kFd8Ul9KuT-193" value="" style="line;strokeWidth=1;fillColor=none;align=left;verticalAlign=middle;spacingTop=-1;spacingLeft=3;spacingRight=3;rotatable=0;labelPosition=right;points=[];portConstraint=eastwest;strokeColor=inherit;fontFamily=Avenir;" vertex="1" parent="KbI-gIg1m7kFd8Ul9KuT-191">
          <mxGeometry y="26" width="160" height="8" as="geometry" />
        </mxCell>
        <mxCell id="KbI-gIg1m7kFd8Ul9KuT-195" value="DrawTree" style="swimlane;fontStyle=1;align=center;verticalAlign=top;childLayout=stackLayout;horizontal=1;startSize=26;horizontalStack=0;resizeParent=1;resizeParentMax=0;resizeLast=0;collapsible=1;marginBottom=0;whiteSpace=wrap;html=1;fillColor=#EA6B66;fontFamily=Avenir;" vertex="1" parent="1">
          <mxGeometry x="1280" y="2277" width="160" height="34" as="geometry" />
        </mxCell>
        <mxCell id="KbI-gIg1m7kFd8Ul9KuT-197" value="" style="line;strokeWidth=1;fillColor=light-dark(#ffdbdb, #ededed);align=left;verticalAlign=middle;spacingTop=-1;spacingLeft=3;spacingRight=3;rotatable=0;labelPosition=right;points=[];portConstraint=eastwest;strokeColor=inherit;fontFamily=Avenir;" vertex="1" parent="KbI-gIg1m7kFd8Ul9KuT-195">
          <mxGeometry y="26" width="160" height="8" as="geometry" />
        </mxCell>
        <mxCell id="KbI-gIg1m7kFd8Ul9KuT-199" style="edgeStyle=orthogonalEdgeStyle;rounded=0;orthogonalLoop=1;jettySize=auto;html=1;fontFamily=Avenir;" edge="1" parent="1" source="KbI-gIg1m7kFd8Ul9KuT-203" target="KbI-gIg1m7kFd8Ul9KuT-156">
          <mxGeometry relative="1" as="geometry" />
        </mxCell>
        <mxCell id="KbI-gIg1m7kFd8Ul9KuT-200" style="edgeStyle=orthogonalEdgeStyle;rounded=0;orthogonalLoop=1;jettySize=auto;html=1;fontFamily=Avenir;" edge="1" parent="1" source="KbI-gIg1m7kFd8Ul9KuT-203" target="KbI-gIg1m7kFd8Ul9KuT-174">
          <mxGeometry relative="1" as="geometry" />
        </mxCell>
        <mxCell id="KbI-gIg1m7kFd8Ul9KuT-201" style="edgeStyle=orthogonalEdgeStyle;rounded=0;orthogonalLoop=1;jettySize=auto;html=1;entryX=1;entryY=0.5;entryDx=0;entryDy=0;fontFamily=Avenir;" edge="1" parent="1" source="KbI-gIg1m7kFd8Ul9KuT-203" target="KbI-gIg1m7kFd8Ul9KuT-169">
          <mxGeometry relative="1" as="geometry">
            <Array as="points">
              <mxPoint x="1560" y="2617" />
            </Array>
          </mxGeometry>
        </mxCell>
        <mxCell id="KbI-gIg1m7kFd8Ul9KuT-202" style="edgeStyle=orthogonalEdgeStyle;rounded=0;orthogonalLoop=1;jettySize=auto;html=1;fontFamily=Avenir;" edge="1" parent="1" source="KbI-gIg1m7kFd8Ul9KuT-203" target="KbI-gIg1m7kFd8Ul9KuT-164">
          <mxGeometry relative="1" as="geometry" />
        </mxCell>
        <mxCell id="KbI-gIg1m7kFd8Ul9KuT-203" value="Flask" style="swimlane;fontStyle=1;align=center;verticalAlign=top;childLayout=stackLayout;horizontal=1;startSize=26;horizontalStack=0;resizeParent=1;resizeParentMax=0;resizeLast=0;collapsible=1;marginBottom=0;whiteSpace=wrap;html=1;fontFamily=Avenir;" vertex="1" parent="1">
          <mxGeometry x="1480" y="2520" width="160" height="34" as="geometry" />
        </mxCell>
        <mxCell id="KbI-gIg1m7kFd8Ul9KuT-205" value="" style="line;strokeWidth=1;fillColor=none;align=left;verticalAlign=middle;spacingTop=-1;spacingLeft=3;spacingRight=3;rotatable=0;labelPosition=right;points=[];portConstraint=eastwest;strokeColor=inherit;fontFamily=Avenir;" vertex="1" parent="KbI-gIg1m7kFd8Ul9KuT-203">
          <mxGeometry y="26" width="160" height="8" as="geometry" />
        </mxCell>
        <mxCell id="KbI-gIg1m7kFd8Ul9KuT-207" value="grammarParserLexer" style="swimlane;fontStyle=1;align=center;verticalAlign=top;childLayout=stackLayout;horizontal=1;startSize=26;horizontalStack=0;resizeParent=1;resizeParentMax=0;resizeLast=0;collapsible=1;marginBottom=0;whiteSpace=wrap;html=1;fontFamily=Avenir;fillColor=#67AB9F;" vertex="1" parent="1">
          <mxGeometry x="2145" y="2319" width="160" height="34" as="geometry" />
        </mxCell>
        <mxCell id="KbI-gIg1m7kFd8Ul9KuT-209" value="" style="line;strokeWidth=1;fillColor=none;align=left;verticalAlign=middle;spacingTop=-1;spacingLeft=3;spacingRight=3;rotatable=0;labelPosition=right;points=[];portConstraint=eastwest;strokeColor=inherit;fontFamily=Avenir;" vertex="1" parent="KbI-gIg1m7kFd8Ul9KuT-207">
          <mxGeometry y="26" width="160" height="8" as="geometry" />
        </mxCell>
        <mxCell id="KbI-gIg1m7kFd8Ul9KuT-211" value="grammarParserParser" style="swimlane;fontStyle=1;align=center;verticalAlign=top;childLayout=stackLayout;horizontal=1;startSize=26;horizontalStack=0;resizeParent=1;resizeParentMax=0;resizeLast=0;collapsible=1;marginBottom=0;whiteSpace=wrap;html=1;fontFamily=Avenir;fillColor=#67AB9F;" vertex="1" parent="1">
          <mxGeometry x="2145" y="2410" width="160" height="34" as="geometry" />
        </mxCell>
        <mxCell id="KbI-gIg1m7kFd8Ul9KuT-213" value="" style="line;strokeWidth=1;fillColor=none;align=left;verticalAlign=middle;spacingTop=-1;spacingLeft=3;spacingRight=3;rotatable=0;labelPosition=right;points=[];portConstraint=eastwest;strokeColor=inherit;fontFamily=Avenir;" vertex="1" parent="KbI-gIg1m7kFd8Ul9KuT-211">
          <mxGeometry y="26" width="160" height="8" as="geometry" />
        </mxCell>
        <mxCell id="KbI-gIg1m7kFd8Ul9KuT-215" value="TreeSitter" style="swimlane;fontStyle=1;align=center;verticalAlign=top;childLayout=stackLayout;horizontal=1;startSize=26;horizontalStack=0;resizeParent=1;resizeParentMax=0;resizeLast=0;collapsible=1;marginBottom=0;whiteSpace=wrap;html=1;fontFamily=Avenir;fillColor=#FFD966;" vertex="1" parent="1">
          <mxGeometry x="1680" y="2434" width="160" height="34" as="geometry" />
        </mxCell>
        <mxCell id="KbI-gIg1m7kFd8Ul9KuT-217" value="" style="line;strokeWidth=1;fillColor=none;align=left;verticalAlign=middle;spacingTop=-1;spacingLeft=3;spacingRight=3;rotatable=0;labelPosition=right;points=[];portConstraint=eastwest;strokeColor=inherit;fontFamily=Avenir;" vertex="1" parent="KbI-gIg1m7kFd8Ul9KuT-215">
          <mxGeometry y="26" width="160" height="8" as="geometry" />
        </mxCell>
        <mxCell id="KbI-gIg1m7kFd8Ul9KuT-219" style="edgeStyle=orthogonalEdgeStyle;rounded=0;orthogonalLoop=1;jettySize=auto;html=1;fontFamily=Avenir;" edge="1" parent="1" source="KbI-gIg1m7kFd8Ul9KuT-220" target="KbI-gIg1m7kFd8Ul9KuT-149">
          <mxGeometry relative="1" as="geometry" />
        </mxCell>
        <mxCell id="KbI-gIg1m7kFd8Ul9KuT-220" value="BNFParser" style="swimlane;fontStyle=1;align=center;verticalAlign=top;childLayout=stackLayout;horizontal=1;startSize=26;horizontalStack=0;resizeParent=1;resizeParentMax=0;resizeLast=0;collapsible=1;marginBottom=0;whiteSpace=wrap;html=1;fontFamily=Avenir;fillColor=#67AB9F;" vertex="1" parent="1">
          <mxGeometry x="1920" y="2520" width="160" height="34" as="geometry" />
        </mxCell>
        <mxCell id="KbI-gIg1m7kFd8Ul9KuT-222" value="" style="line;strokeWidth=1;fillColor=none;align=left;verticalAlign=middle;spacingTop=-1;spacingLeft=3;spacingRight=3;rotatable=0;labelPosition=right;points=[];portConstraint=eastwest;strokeColor=inherit;fontFamily=Avenir;" vertex="1" parent="KbI-gIg1m7kFd8Ul9KuT-220">
          <mxGeometry y="26" width="160" height="8" as="geometry" />
        </mxCell>
        <mxCell id="KbI-gIg1m7kFd8Ul9KuT-224" value="ANTLR" style="text;html=1;align=center;verticalAlign=middle;whiteSpace=wrap;rounded=0;fontFamily=Avenir;fontStyle=1" vertex="1" parent="1">
          <mxGeometry x="2120" y="2280" width="65" height="34" as="geometry" />
        </mxCell>
        <mxCell id="KbI-gIg1m7kFd8Ul9KuT-225" value="Tree-Sitter" style="text;html=1;align=center;verticalAlign=middle;whiteSpace=wrap;rounded=0;fontFamily=Avenir;fontStyle=1" vertex="1" parent="1">
          <mxGeometry x="1660" y="2397" width="80" height="34" as="geometry" />
        </mxCell>
        <mxCell id="KbI-gIg1m7kFd8Ul9KuT-226" style="edgeStyle=orthogonalEdgeStyle;rounded=0;orthogonalLoop=1;jettySize=auto;html=1;fontFamily=Avenir;" edge="1" parent="1" source="KbI-gIg1m7kFd8Ul9KuT-220" target="KbI-gIg1m7kFd8Ul9KuT-179">
          <mxGeometry relative="1" as="geometry" />
        </mxCell>
        <mxCell id="KbI-gIg1m7kFd8Ul9KuT-227" style="edgeStyle=orthogonalEdgeStyle;rounded=0;orthogonalLoop=1;jettySize=auto;html=1;fontFamily=Avenir;" edge="1" parent="1" source="KbI-gIg1m7kFd8Ul9KuT-211" target="KbI-gIg1m7kFd8Ul9KuT-207">
          <mxGeometry relative="1" as="geometry">
            <Array as="points" />
          </mxGeometry>
        </mxCell>
        <mxCell id="KbI-gIg1m7kFd8Ul9KuT-228" style="edgeStyle=orthogonalEdgeStyle;rounded=0;orthogonalLoop=1;jettySize=auto;html=1;fontFamily=Avenir;" edge="1" parent="1" source="KbI-gIg1m7kFd8Ul9KuT-179" target="KbI-gIg1m7kFd8Ul9KuT-145">
          <mxGeometry relative="1" as="geometry" />
        </mxCell>
        <mxCell id="KbI-gIg1m7kFd8Ul9KuT-229" value="ConditionSim" style="swimlane;fontStyle=1;align=center;verticalAlign=top;childLayout=stackLayout;horizontal=1;startSize=26;horizontalStack=0;resizeParent=1;resizeParentMax=0;resizeLast=0;collapsible=1;marginBottom=0;whiteSpace=wrap;html=1;fontFamily=Avenir;fillColor=#B5739D;" vertex="1" parent="1">
          <mxGeometry x="1480" y="2720" width="160" height="34" as="geometry" />
        </mxCell>
        <mxCell id="KbI-gIg1m7kFd8Ul9KuT-231" value="" style="line;strokeWidth=1;fillColor=none;align=left;verticalAlign=middle;spacingTop=-1;spacingLeft=3;spacingRight=3;rotatable=0;labelPosition=right;points=[];portConstraint=eastwest;strokeColor=inherit;fontFamily=Avenir;" vertex="1" parent="KbI-gIg1m7kFd8Ul9KuT-229">
          <mxGeometry y="26" width="160" height="8" as="geometry" />
        </mxCell>
        <mxCell id="KbI-gIg1m7kFd8Ul9KuT-233" value="TimeOverride" style="swimlane;fontStyle=1;align=center;verticalAlign=top;childLayout=stackLayout;horizontal=1;startSize=26;horizontalStack=0;resizeParent=1;resizeParentMax=0;resizeLast=0;collapsible=1;marginBottom=0;whiteSpace=wrap;html=1;fontFamily=Avenir;fillColor=#B5739D;" vertex="1" parent="1">
          <mxGeometry x="1081" y="2600" width="160" height="34" as="geometry" />
        </mxCell>
        <mxCell id="KbI-gIg1m7kFd8Ul9KuT-235" value="" style="line;strokeWidth=1;fillColor=none;align=left;verticalAlign=middle;spacingTop=-1;spacingLeft=3;spacingRight=3;rotatable=0;labelPosition=right;points=[];portConstraint=eastwest;strokeColor=inherit;fontFamily=Avenir;" vertex="1" parent="KbI-gIg1m7kFd8Ul9KuT-233">
          <mxGeometry y="26" width="160" height="8" as="geometry" />
        </mxCell>
        <mxCell id="KbI-gIg1m7kFd8Ul9KuT-240" value="&lt;font&gt;Visualisation&lt;/font&gt;" style="rounded=0;whiteSpace=wrap;html=1;fillColor=#EA6B66;fontStyle=1;fontFamily=Avenir;fontSize=14;" vertex="1" parent="1">
          <mxGeometry x="1080" y="2200" width="120" height="40" as="geometry" />
        </mxCell>
        <mxCell id="KbI-gIg1m7kFd8Ul9KuT-241" value="&lt;font&gt;Analysis&lt;/font&gt;" style="rounded=0;whiteSpace=wrap;html=1;fillColor=#B5739D;fontStyle=1;fontFamily=Avenir;fontSize=14;" vertex="1" parent="1">
          <mxGeometry x="1200" y="2200" width="120" height="40" as="geometry" />
        </mxCell>
        <mxCell id="KbI-gIg1m7kFd8Ul9KuT-242" value="&lt;font&gt;Parsing&lt;/font&gt;" style="rounded=0;whiteSpace=wrap;html=1;fillColor=#FFD966;fontStyle=1;fontFamily=Avenir;fontSize=14;" vertex="1" parent="1">
          <mxGeometry x="1320" y="2200" width="120" height="40" as="geometry" />
        </mxCell>
        <mxCell id="KbI-gIg1m7kFd8Ul9KuT-243" value="&lt;font&gt;Grammar Parsing&lt;/font&gt;" style="rounded=0;whiteSpace=wrap;html=1;fillColor=#67AB9F;fontStyle=1;fontFamily=Avenir;fontSize=14;" vertex="1" parent="1">
          <mxGeometry x="1441" y="2200" width="120" height="40" as="geometry" />
        </mxCell>
      </root>
    </mxGraphModel>
  </diagram>
</mxfile>
